# Blender v3.0.1 OBJ File: 'ceiling1.blend'
# www.blender.org
mtllib ceiling1.mtl
o cieling1_Cube.001
v 1.000000 2.400000 1.000000
v 1.000000 2.350000 1.000000
v 1.000000 2.400000 -1.000000
v 1.000000 2.350000 -1.000000
v -1.000000 2.400000 1.000000
v -1.000000 2.350000 1.000000
v -1.000000 2.400000 -1.000000
v -1.000000 2.350000 -1.000000
v -1.000000 2.300000 -0.410894
v -1.000000 2.350000 -0.410894
v -1.000000 2.300000 -0.600000
v -1.000000 2.350000 -0.600000
v 1.000000 2.300000 -0.410894
v 1.000000 2.350000 -0.410894
v 1.000000 2.300000 -0.600000
v 1.000000 2.350000 -0.600000
v -1.000000 2.300000 0.589106
v -1.000000 2.350000 0.589106
v -1.000000 2.300000 0.400000
v -1.000000 2.350000 0.400000
v 1.000000 2.300000 0.589106
v 1.000000 2.350000 0.589106
v 1.000000 2.300000 0.400000
v 1.000000 2.350000 0.400000
vt 0.550000 0.500000
vt 0.537500 0.500000
vt 0.537500 0.000000
vt 0.550000 0.000000
vt 0.537500 0.500000
vt 0.525000 0.500000
vt 0.525000 0.000000
vt 0.537500 0.000000
vt 0.525000 0.500000
vt 0.512500 0.500000
vt 0.512500 0.000000
vt 0.525000 0.000000
vt 0.512500 0.500000
vt 0.500000 0.500000
vt 0.500000 0.000000
vt 0.512500 0.000000
vt 0.000000 0.000000
vt 1.000000 0.000000
vt 1.000000 1.000000
vt 0.000000 1.000000
vt 0.528453 0.000000
vt 0.553453 0.000000
vt 0.553453 0.094553
vt 0.528453 0.094553
vt 0.388147 1.000000
vt 0.363147 1.000000
vt 0.363147 0.000000
vt 0.388147 0.000000
vt 0.503453 0.189106
vt 0.528453 0.189106
vt 0.528453 0.283660
vt 0.503453 0.283660
vt 0.438147 1.000000
vt 0.413147 1.000000
vt 0.413147 0.000000
vt 0.438147 0.000000
vt 0.691370 0.000000
vt 0.691370 1.000000
vt 0.596817 1.000000
vt 0.596817 0.000000
vt 0.625000 0.500000
vt 0.875000 0.500000
vt 0.875000 0.750000
vt 0.625000 0.750000
vt 0.503453 0.094553
vt 0.528453 0.094553
vt 0.528453 0.189106
vt 0.503453 0.189106
vt 0.413147 1.000000
vt 0.388147 1.000000
vt 0.388147 0.000000
vt 0.413147 0.000000
vt 0.503453 0.000000
vt 0.528453 0.000000
vt 0.528453 0.094553
vt 0.503453 0.094553
vt 0.463148 1.000000
vt 0.438147 1.000000
vt 0.438147 0.000000
vt 0.463148 0.000000
vt 0.344135 0.000000
vt 0.344135 1.000000
vt 0.249582 1.000000
vt 0.249582 0.000000
vt 0.625000 0.500000
vt 0.875000 0.500000
vt 0.875000 0.750000
vt 0.625000 0.750000
vn 1.0000 0.0000 0.0000
vn 0.0000 0.0000 -1.0000
vn -1.0000 0.0000 0.0000
vn 0.0000 0.0000 1.0000
vn 0.0000 -1.0000 0.0000
vn 0.0000 1.0000 0.0000
usemtl cieling1_material
s off
f 1/1/1 2/2/1 4/3/1 3/4/1
f 3/5/2 4/6/2 8/7/2 7/8/2
f 7/9/3 8/10/3 6/11/3 5/12/3
f 5/13/4 6/14/4 2/15/4 1/16/4
f 8/17/5 4/18/5 2/19/5 6/20/5
f 9/21/3 10/22/3 12/23/3 11/24/3
f 11/25/2 12/26/2 16/27/2 15/28/2
f 15/29/1 16/30/1 14/31/1 13/32/1
f 13/33/4 14/34/4 10/35/4 9/36/4
f 11/37/5 15/38/5 13/39/5 9/40/5
f 16/41/6 12/42/6 10/43/6 14/44/6
f 17/45/3 18/46/3 20/47/3 19/48/3
f 19/49/2 20/50/2 24/51/2 23/52/2
f 23/53/1 24/54/1 22/55/1 21/56/1
f 21/57/4 22/58/4 18/59/4 17/60/4
f 19/61/5 23/62/5 21/63/5 17/64/5
f 24/65/6 20/66/6 18/67/6 22/68/6
