# Blender v3.0.1 OBJ File: 'doorway7.blend'
# www.blender.org
mtllib doorway7.mtl
o doorway7_Cube.001
v -0.600000 0.000521 0.010000
v -0.600000 2.100000 0.010000
v 0.600000 0.000521 0.010000
v 0.600000 2.100000 0.010000
v -0.500000 2.000000 0.010000
v 0.500000 2.000000 0.010000
v -0.500000 0.000521 0.010000
v 0.500000 0.000521 0.010000
v -1.000000 2.400000 0.000000
v -1.000000 0.000000 0.000000
v 1.000000 2.400000 0.000000
v 1.000000 0.000000 0.000000
v 0.600000 0.000521 -0.050000
v -0.600000 2.100000 -0.050000
v 0.600000 2.100000 -0.050000
v -0.600000 0.000521 -0.050000
v 0.530000 0.000000 0.000000
v -0.530000 0.000000 0.000000
v -0.530000 2.030000 0.000000
v 0.530000 2.030000 0.000000
v -1.000000 2.400000 -0.050000
v 0.530000 0.000000 -0.050000
v -0.530000 2.030000 -0.050000
v 0.530000 2.030000 -0.050000
v -1.000000 0.000000 -0.050000
v -0.530000 0.000000 -0.050000
v 1.000000 2.400000 -0.050000
v 1.000000 0.000000 -0.050000
v -0.500000 0.000521 -0.050000
v 0.500000 2.000000 -0.050000
v -0.500000 2.000000 -0.050000
v 0.500000 0.000521 -0.050000
vt 0.201883 0.017855
vt 0.000000 0.017855
vt 0.000000 0.004424
vt 0.201883 0.004424
vt 0.776939 -0.046914
vt 0.832326 -0.046914
vt 0.832326 0.922131
vt 0.776939 0.875975
vt 0.365383 0.001695
vt 0.365383 0.028461
vt 0.204787 0.028461
vt 0.204787 0.001695
vt 0.000000 0.026045
vt 0.403866 0.026046
vt 0.403866 0.052091
vt 0.000000 0.052091
vt 0.847891 0.038721
vt 0.021116 0.038721
vt 0.021116 0.022084
vt 0.847891 0.022084
vt 0.050950 0.016637
vt 0.496348 0.016637
vt 0.496348 0.033273
vt 0.050950 0.033273
vt 0.223061 0.875975
vt 0.167673 0.922131
vt 0.167673 -0.046914
vt 0.223061 -0.046914
vt 1.000000 0.000000
vt 1.000000 1.000000
vt 0.000000 1.000000
vt 0.000000 0.000000
vt 0.235000 0.000000
vt 0.235000 0.845833
vt 0.765000 0.845833
vt 0.765000 0.000000
vt 0.204787 0.055227
vt 0.204787 0.028461
vt 0.365383 0.028461
vt 0.365383 0.055227
vt 0.831869 0.039661
vt 0.014942 0.039661
vt 0.014942 0.024011
vt 0.831869 0.024011
vt 0.637500 1.000000
vt 0.833333 1.000000
vt 0.833333 1.000000
vt 0.637500 1.000000
vt 0.625000 0.131250
vt 0.625000 0.125000
vt 0.500000 0.125000
vt 0.500000 0.131250
vt 0.625000 0.625000
vt 0.875000 0.625000
vt 0.875000 0.618750
vt 0.625000 0.618750
vt 0.500000 0.625000
vt 0.500000 0.618750
vt 0.000000 1.000000
vt 0.000000 1.000000
vt 0.195833 1.000000
vt 0.195833 1.000000
vt 0.306939 1.000000
vt 0.306939 0.000000
vt 0.306939 0.000000
vt 0.306939 1.000000
vt 0.000000 0.000000
vt 0.833333 0.000000
vt 0.833333 0.000000
vt 0.000000 0.000000
vt 0.451985 0.000000
vt 0.451985 1.000000
vt 0.451985 1.000000
vt 0.451985 0.000000
vt 0.605649 0.031286
vt 0.403766 0.031286
vt 0.403766 0.017855
vt 0.605649 0.017855
vn 1.0000 0.0000 0.0000
vn 0.0000 0.0000 1.0000
vn 0.0000 -1.0000 0.0000
vn 0.0000 1.0000 0.0000
vn -1.0000 0.0000 0.0000
usemtl wall7_material
s off
f 13/1/1 15/2/1 4/3/1 3/4/1
f 8/5/2 3/6/2 4/7/2 6/8/2
f 32/9/3 13/10/3 3/11/3 8/12/3
f 15/13/4 14/14/4 2/15/4 4/16/4
f 29/17/1 31/18/1 5/19/1 7/20/1
f 31/21/3 30/22/3 6/23/3 5/24/3
f 5/25/2 2/26/2 1/27/2 7/28/2
f 6/8/2 4/7/2 2/26/2 5/25/2
f 12/29/2 11/30/2 9/31/2 10/32/2 18/33/2 19/34/2 20/35/2 17/36/2
f 7/37/3 1/38/3 16/39/3 29/40/3
f 8/41/5 6/42/5 30/43/5 32/44/5
f 22/45/3 28/46/3 12/47/3 17/48/3
f 23/49/1 19/50/1 18/51/1 26/52/1
f 20/53/3 19/54/3 23/55/3 24/56/3
f 17/57/5 20/53/5 24/56/5 22/58/5
f 10/59/3 25/60/3 26/61/3 18/62/3
f 11/63/1 12/64/1 28/65/1 27/66/1
f 9/67/4 11/68/4 27/69/4 21/70/4
f 10/71/5 9/72/5 21/73/5 25/74/5
f 1/75/5 2/76/5 14/77/5 16/78/5
