# Blender v3.0.1 OBJ File: 'pillar1_1-4.blend'
# www.blender.org
mtllib pillar1_1-4.mtl
o pillar1_Cube.001
v 0.125000 -0.000000 0.125000
v 0.125000 2.400000 0.125000
v 0.000000 -0.000000 0.125000
v 0.000000 2.400000 0.125000
v 0.125000 -0.000000 0.000000
v 0.125000 2.400000 0.000000
v 0.000000 2.400000 0.000000
v 0.000000 -0.000000 0.000000
vt 0.052083 0.000000
vt 0.052083 1.000000
vt 0.000000 1.000000
vt 0.000000 0.000000
vt 0.468750 0.156250
vt 0.520833 0.156250
vt 0.520833 0.208333
vt 0.468750 0.208333
vt 0.416667 0.052083
vt 0.468750 0.052083
vt 0.468750 0.104167
vt 0.416667 0.104167
vt 0.312500 0.000000
vt 0.312500 1.000000
vt 0.260417 1.000000
vt 0.260417 0.000000
vn 1.0000 0.0000 0.0000
vn 0.0000 -1.0000 0.0000
vn 0.0000 1.0000 0.0000
vn 0.0000 0.0000 1.0000
usemtl wall6_material
s off
f 5/1/1 6/2/1 2/3/1 1/4/1
f 8/5/2 5/6/2 1/7/2 3/8/2
f 6/9/3 7/10/3 4/11/3 2/12/3
f 1/13/4 2/14/4 4/15/4 3/16/4
