# Blender v3.0.1 OBJ File: 'window_wall3.blend'
# www.blender.org
mtllib window_wall3.mtl
o window_wall3_Room
v -1.000000 2.400000 0.000000
v -1.000000 0.000000 0.000000
v 1.000000 2.400000 0.000000
v 1.000000 0.000000 0.000000
v -1.000000 2.400000 -0.050000
v -1.000000 0.000000 -0.050000
v 1.000000 2.400000 -0.050000
v 1.000000 0.000000 -0.050000
v -0.500000 1.627389 0.000000
v 0.004378 1.069322 0.000000
v -0.496945 1.069322 0.000000
v -0.001323 2.188418 0.000000
v -0.500000 2.188418 0.000000
v 0.500000 1.069322 0.000000
v 0.500000 1.630351 0.000000
v 0.500000 2.188418 0.000000
v -0.497133 1.069322 -0.050000
v -0.500000 1.593120 -0.050000
v -0.500000 2.188418 -0.050000
v 0.500000 2.188418 -0.050000
v -0.031946 2.188418 -0.050000
v 0.034813 1.069322 -0.050000
v 0.500000 1.664620 -0.050000
v 0.500000 1.069322 -0.050000
v -0.560000 1.029554 0.072585
v -0.560000 1.113587 0.072585
v -0.560000 1.029554 -0.050000
v -0.560000 1.113587 -0.050000
v 0.560000 1.029554 0.072585
v 0.560000 1.113587 0.072585
v 0.560000 1.029554 -0.050000
v 0.560000 1.113587 -0.050000
vt 0.000000 1.000000
vt 0.000000 0.000000
vt 1.000000 0.000000
vt 1.000000 1.000000
vt 0.750000 0.911841
vt 0.750000 0.679313
vt 0.750000 0.445551
vt 0.502189 0.445551
vt 0.251527 0.445551
vt 0.250000 0.678079
vt 0.250000 0.911841
vt 0.499339 0.911841
vt 0.833333 1.000000
vt 0.000000 1.000000
vt 0.000000 1.000000
vt 0.833333 1.000000
vt 0.306939 1.000000
vt 0.306939 0.000000
vt 0.306939 0.000000
vt 0.306939 1.000000
vt 0.000000 0.000000
vt 0.833333 0.000000
vt 0.833333 0.000000
vt 0.000000 0.000000
vt 0.451985 0.000000
vt 0.451985 1.000000
vt 0.451985 1.000000
vt 0.451985 0.000000
vt 0.334187 0.022174
vt 0.169706 0.022174
vt 0.159658 0.005769
vt 0.334187 0.005769
vt 0.189000 0.009772
vt 0.200244 0.026177
vt 0.004930 0.026177
vt 0.004930 0.009772
vt 0.000000 0.000000
vt 0.000000 0.000000
vt 0.000000 0.000000
vt 0.000000 0.000000
vt 0.006093 0.010675
vt 0.190163 0.010675
vt 0.201407 0.027080
vt 0.006093 0.027079
vt 0.006093 0.022174
vt 0.006093 0.005769
vt 0.372099 0.009772
vt 0.372099 0.026177
vt 0.000000 0.000000
vt 0.000000 0.000000
vt 0.373263 0.010675
vt 0.373263 0.027080
vt 0.083819 0.030184
vt 0.043599 0.002614
vt 0.083819 0.002614
vt 0.003380 0.002614
vt 0.043599 0.030184
vt 0.003380 0.030184
vt 0.384797 0.031010
vt 0.017331 0.003439
vt 0.384797 0.003440
vt 0.059758 0.032886
vt 0.322993 0.004075
vt 0.322993 0.032886
vt 0.048066 0.033931
vt 0.357163 0.000100
vt 0.357163 0.033931
vt 0.043599 0.030184
vt 0.043599 0.002614
vt 0.017331 0.031010
vt 0.059758 0.004075
vt 0.048066 0.034706
vt 0.048066 0.000875
vt 0.357163 0.000875
vn 0.0000 0.0000 1.0000
vn 0.0000 -1.0000 0.0000
vn 1.0000 0.0000 0.0000
vn 0.0000 1.0000 0.0000
vn -1.0000 0.0000 0.0000
vn 1.0000 0.0055 -0.0038
usemtl wall3_material
s off
f 1/1/1 2/2/1 4/3/1 3/4/1 16/5/1 15/6/1 14/7/1 10/8/1 11/9/1 9/10/1 13/11/1
f 16/5/1 3/4/1 1/1/1 13/11/1 12/12/1
f 4/13/2 2/14/2 6/15/2 8/16/2
f 3/17/3 4/18/3 8/19/3 7/20/3
f 1/21/4 3/22/4 7/23/4 5/24/4
f 2/25/5 1/26/5 5/27/5 6/28/5
f 16/29/2 12/30/2 21/31/2 20/32/2
f 15/33/5 23/34/5 24/35/5 14/36/5
f 17/37/4 11/38/4 10/39/4 22/40/4
f 13/41/3 9/42/3 18/43/3 19/44/3
f 12/30/2 13/45/2 19/46/2 21/31/2
f 23/34/5 15/33/5 16/47/5 20/48/5
f 14/49/4 24/50/4 22/40/4 10/39/4
f 18/43/6 9/42/6 11/51/6 17/52/6
f 26/53/5 27/54/5 25/55/5
f 32/56/3 29/57/3 31/58/3
f 30/59/1 25/60/1 29/61/1
f 31/62/2 25/63/2 27/64/2
f 28/65/4 30/66/4 32/67/4
f 26/53/5 28/68/5 27/54/5
f 32/56/3 30/69/3 29/57/3
f 30/59/1 26/70/1 25/60/1
f 31/62/2 29/71/2 25/63/2
f 28/72/4 26/73/4 30/74/4
