# Blender v3.0.1 OBJ File: 'window_wall4.blend'
# www.blender.org
mtllib window_wall4.mtl
o wall_4_Room
v -1.000000 2.400000 0.000000
v -1.000000 0.000000 0.000000
v 1.000000 2.400000 0.000000
v 1.000000 0.000000 0.000000
v -1.000000 2.400000 -0.050000
v -1.000000 0.000000 -0.050000
v 1.000000 2.400000 -0.050000
v 1.000000 0.000000 -0.050000
v -0.500000 1.627389 0.000000
v 0.004378 1.069322 0.000000
v -0.496945 1.069322 0.000000
v -0.001323 2.188418 0.000000
v -0.500000 2.188418 0.000000
v 0.500000 1.069322 0.000000
v 0.500000 1.630351 0.000000
v 0.500000 2.188418 0.000000
v -0.497133 1.069322 -0.050000
v -0.500000 1.593120 -0.050000
v -0.500000 2.188418 -0.050000
v 0.500000 2.188418 -0.050000
v -0.031946 2.188418 -0.050000
v 0.034813 1.069322 -0.050000
v 0.500000 1.664620 -0.050000
v 0.500000 1.069322 -0.050000
v -0.560000 1.029554 0.072585
v -0.560000 1.113587 0.072585
v -0.560000 1.029554 -0.050000
v -0.560000 1.113587 -0.050000
v 0.560000 1.029554 0.072585
v 0.560000 1.113587 0.072585
v 0.560000 1.029554 -0.050000
v 0.560000 1.113587 -0.050000
vt 0.000000 1.000000
vt 0.000000 0.000000
vt 1.000000 0.000000
vt 1.000000 1.000000
vt 0.750000 0.911841
vt 0.750000 0.679313
vt 0.750000 0.445551
vt 0.502189 0.445551
vt 0.251527 0.445551
vt 0.250000 0.678079
vt 0.250000 0.911841
vt 0.499338 0.911841
vt 0.833333 1.000000
vt 0.000000 1.000000
vt 0.000000 1.000000
vt 0.833333 1.000000
vt 0.306939 1.000000
vt 0.306939 0.000000
vt 0.306939 0.000000
vt 0.306939 1.000000
vt 0.000000 0.000000
vt 0.833333 0.000000
vt 0.833333 0.000000
vt 0.000000 0.000000
vt 0.451985 0.000000
vt 0.451985 1.000000
vt 0.451985 1.000000
vt 0.451985 0.000000
vt 0.403861 0.029226
vt 0.202827 0.029226
vt 0.190547 0.009176
vt 0.403861 0.009176
vt 0.227830 0.009695
vt 0.241573 0.029745
vt 0.002854 0.029745
vt 0.002854 0.009695
vt 0.000000 0.000000
vt 0.000000 0.000000
vt 0.000000 0.000000
vt 0.000000 0.000000
vt 0.002854 0.009726
vt 0.227830 0.009726
vt 0.241572 0.029777
vt 0.002854 0.029776
vt 0.002854 0.029226
vt 0.002854 0.009176
vt 0.451619 0.009695
vt 0.451619 0.029745
vt 0.000000 0.000000
vt 0.000000 0.000000
vt 0.451620 0.009726
vt 0.451620 0.029776
vt 0.101169 0.036520
vt 0.052011 0.002822
vt 0.101169 0.002822
vt 0.002854 0.002822
vt 0.052011 0.036520
vt 0.002854 0.036520
vt 0.401209 0.030554
vt 0.053626 0.004475
vt 0.401209 0.004475
vt 0.088724 0.032762
vt 0.366111 0.002402
vt 0.366111 0.032762
vt 0.071511 0.032329
vt 0.345238 0.002370
vt 0.345238 0.032329
vt 0.052011 0.036520
vt 0.052011 0.002822
vt 0.053626 0.030554
vt 0.088724 0.002402
vt 0.071511 0.002370
vn 0.0000 0.0000 1.0000
vn 0.0000 -1.0000 0.0000
vn 1.0000 0.0000 0.0000
vn 0.0000 1.0000 0.0000
vn -1.0000 0.0000 0.0000
vn 1.0000 0.0055 -0.0038
usemtl wall4_material
s off
f 1/1/1 2/2/1 4/3/1 3/4/1 16/5/1 15/6/1 14/7/1 10/8/1 11/9/1 9/10/1 13/11/1
f 16/5/1 3/4/1 1/1/1 13/11/1 12/12/1
f 4/13/2 2/14/2 6/15/2 8/16/2
f 3/17/3 4/18/3 8/19/3 7/20/3
f 1/21/4 3/22/4 7/23/4 5/24/4
f 2/25/5 1/26/5 5/27/5 6/28/5
f 16/29/2 12/30/2 21/31/2 20/32/2
f 15/33/5 23/34/5 24/35/5 14/36/5
f 17/37/4 11/38/4 10/39/4 22/40/4
f 13/41/3 9/42/3 18/43/3 19/44/3
f 12/30/2 13/45/2 19/46/2 21/31/2
f 23/34/5 15/33/5 16/47/5 20/48/5
f 14/49/4 24/50/4 22/40/4 10/39/4
f 18/43/6 9/42/6 11/51/6 17/52/6
f 26/53/5 27/54/5 25/55/5
f 32/56/3 29/57/3 31/58/3
f 30/59/1 25/60/1 29/61/1
f 31/62/2 25/63/2 27/64/2
f 28/65/4 30/66/4 32/67/4
f 26/53/5 28/68/5 27/54/5
f 32/56/3 30/69/3 29/57/3
f 30/59/1 26/70/1 25/60/1
f 31/62/2 29/71/2 25/63/2
f 28/65/4 26/72/4 30/66/4
