# Blender v3.0.1 OBJ File: 'harp.blend'
# www.blender.org
mtllib harp.mtl
o harp_Plane
v -0.373462 1.840127 0.083085
v 0.728821 1.319144 0.083085
v -0.446235 0.016932 0.083085
v 0.295598 0.409254 0.083085
v -0.446235 1.016932 0.083085
v 0.330716 1.461709 0.083085
v 0.414975 0.664138 0.083085
v 0.038347 0.019931 0.083085
v -0.446235 1.618840 -0.083381
v -0.446235 1.618840 0.083085
v 0.588733 1.431581 0.083085
v 0.315841 0.450760 0.083085
v -0.189501 0.016932 0.083085
v -0.444068 0.516932 0.083085
v -0.169284 1.851995 0.083085
v 0.800615 1.135589 0.083085
v 0.209063 0.296245 0.083085
v -0.173972 0.137943 0.083085
v 0.330716 1.334676 0.083085
v -0.210873 1.016932 0.083085
v 0.406889 0.846199 0.083085
v 0.691154 1.263276 0.083085
v -0.186820 1.721701 0.083085
v -0.207004 0.516932 0.083085
v 0.183143 0.469300 0.083085
v -0.373462 1.840127 -0.083381
v 0.588733 1.431581 -0.083381
v 0.728821 1.319144 -0.083381
v 0.315841 0.450760 -0.083381
v 0.295598 0.409254 -0.083381
v -0.189501 0.016932 -0.083381
v -0.446235 0.016932 -0.083381
v -0.444068 0.516932 -0.083381
v -0.446235 1.016932 -0.083381
v -0.169284 1.851995 -0.083381
v 0.330716 1.461709 -0.083381
v 0.800615 1.135589 -0.083381
v 0.414975 0.664138 -0.083381
v 0.209063 0.296245 -0.083381
v 0.038347 0.019931 -0.083381
v -0.173972 0.137943 -0.083381
v -0.210873 1.016932 -0.083381
v 0.330716 1.334676 -0.083381
v 0.406889 0.846199 -0.083381
v 0.691154 1.263276 -0.083381
v -0.186820 1.721701 -0.083381
v -0.207004 0.516932 -0.083381
v 0.183143 0.469300 -0.083381
v -0.193916 0.140291 -0.000708
v 0.095440 0.073795 -0.146927
v -0.304437 0.073795 -0.237298
v -0.551578 0.073794 -0.000708
v -0.304437 0.073795 0.235882
v 0.095440 0.073795 0.145511
v -0.258878 0.122326 -0.139771
v -0.023838 0.122326 -0.086653
v -0.088800 0.083240 -0.225717
v 0.146241 0.083240 -0.000708
v -0.023838 0.122326 0.085237
v -0.404144 0.122325 -0.000708
v -0.469108 0.083240 -0.139771
v -0.258878 0.122326 0.138355
v -0.469108 0.083240 0.138355
v -0.088800 0.083240 0.224301
v 0.186392 0.019996 -0.086653
v 0.186392 0.019996 0.085237
v -0.193916 0.019996 -0.278836
v 0.041127 0.019996 -0.225719
v -0.574224 0.019996 -0.086653
v -0.428959 0.019996 -0.225719
v -0.428959 0.019997 0.224303
v -0.574224 0.019996 0.085237
v 0.041127 0.019997 0.224303
v -0.193916 0.019997 0.277421
v -0.307759 0.016932 0.132913
v -0.307759 0.016932 -0.133209
v -0.364095 1.016932 0.132914
v -0.271373 1.846061 0.132914
v -0.352069 1.670271 0.132914
v -0.350969 0.516932 0.132914
v -0.364095 1.016932 -0.133209
v -0.271373 1.846061 -0.133209
v -0.352069 1.670271 -0.133209
v -0.350969 0.516932 -0.133209
v -0.473791 0.016932 -0.000148
v -0.169284 0.016932 -0.000148
v 0.842300 1.154144 -0.000148
v 0.756479 1.359040 -0.000148
v -0.473791 1.016932 -0.000148
v -0.471624 0.516932 -0.000148
v 0.223089 0.274903 -0.000148
v 0.309624 0.387912 -0.000148
v -0.473791 1.618840 -0.000148
v 0.358375 1.501605 -0.000148
v -0.141625 1.891891 -0.000148
v 0.616392 1.471478 -0.000148
v 0.429001 0.642796 -0.000148
v 0.329867 0.429418 -0.000148
v 0.052373 -0.001410 -0.000148
v -0.373359 1.880023 -0.000148
v -0.243714 1.885957 -0.000148
v -0.307759 0.016932 -0.000148
v 0.673104 0.875144 0.083085
v 0.614480 0.993623 0.083085
v 0.673104 0.875144 -0.083381
v 0.614480 0.993623 -0.083381
v 0.700959 0.873751 -0.000148
v -0.290480 1.813143 -0.011322
v 0.777410 1.233531 -0.011322
v -0.373282 0.085206 -0.011322
v -0.019853 0.087572 -0.011322
v -0.373282 0.085206 0.018916
v -0.290480 1.813143 0.018916
v 0.777410 1.233531 0.018916
v -0.019853 0.087572 0.018916
vt 0.377332 0.842416
vt 0.308189 0.788575
vt 0.379410 0.804947
vt 0.392958 0.806183
vt 0.552781 0.843657
vt 0.405499 0.841982
vt 0.404880 0.774865
vt 0.441152 0.842713
vt 0.354307 0.843837
vt 0.278304 0.816498
vt 0.248134 0.784066
vt 0.354307 0.798621
vt 0.633159 0.812587
vt 0.564287 0.842355
vt 0.519679 0.812547
vt 0.612291 0.779755
vt 0.631333 0.785739
vt 0.612737 0.819915
vt 0.497606 0.842310
vt 0.540093 0.809538
vt 0.354118 0.844068
vt 0.354893 0.798428
vt 0.249888 0.783273
vt 0.278820 0.816742
vt 0.216483 0.833614
vt 0.235779 0.865382
vt 0.830602 0.985739
vt 0.631886 0.981906
vt 0.635084 0.956738
vt 0.833844 0.963724
vt 0.951549 0.964228
vt 0.833678 0.964207
vt 0.836920 0.942193
vt 0.950755 0.927738
vt 0.534769 0.833107
vt 0.539934 0.804418
vt 0.155162 0.959058
vt 0.009812 0.962338
vt 0.010163 0.934773
vt 0.158382 0.938570
vt 0.634962 0.957913
vt 0.638160 0.932745
vt 0.568964 0.776153
vt 0.457611 0.784208
vt 0.425724 0.854232
vt 0.422074 0.787209
vt 0.206554 0.866104
vt 0.212501 0.789399
vt 0.368371 0.801893
vt 0.386417 0.836986
vt 0.356382 0.854764
vt 0.314478 0.853059
vt 0.237039 0.862540
vt 0.215891 0.834397
vt 0.833601 0.963047
vt 0.831103 0.985700
vt 0.636660 0.983017
vt 0.635412 0.956865
vt 0.951651 0.963507
vt 0.944660 0.985317
vt 0.534810 0.832734
vt 0.539976 0.804130
vt 0.156670 0.957080
vt 0.157878 0.980506
vt 0.010745 0.984725
vt 0.009648 0.962035
vt 0.635412 0.954404
vt 0.636660 0.980556
vt 0.207820 0.782599
vt 0.218953 0.858732
vt 0.276357 0.589352
vt 0.269383 0.540960
vt 0.294817 0.545493
vt 0.315167 0.583759
vt 0.678588 0.809764
vt 0.625019 0.812093
vt 0.616006 0.787934
vt 0.664313 0.785834
vt 0.635634 0.978588
vt 0.372695 0.977096
vt 0.372031 0.943671
vt 0.634970 0.945162
vt 0.710965 0.830716
vt 0.604065 0.833269
vt 0.602893 0.784229
vt 0.709794 0.781676
vt 0.227267 0.956042
vt 0.513121 0.954145
vt 0.515313 0.974770
vt 0.229458 0.976666
vt 0.517263 0.805265
vt 0.479300 0.805374
vt 0.484496 0.780831
vt 0.522459 0.780723
vt 0.649539 0.954145
vt 0.819046 0.951859
vt 0.821237 0.972484
vt 0.651730 0.974770
vt 0.529407 0.813646
vt 0.376855 0.821175
vt 0.383209 0.796304
vt 0.535760 0.788776
vt 0.011412 0.977587
vt 0.010748 0.944162
vt 0.522198 0.808403
vt 0.598522 0.811170
vt 0.590066 0.835407
vt 0.513743 0.832640
vt 0.846027 0.977265
vt 0.596104 0.978588
vt 0.595440 0.945162
vt 0.845363 0.943840
vt 0.681683 0.804796
vt 0.598136 0.805034
vt 0.603332 0.780492
vt 0.680268 0.780272
vt 0.530483 0.805227
vt 0.535679 0.780685
vt 0.389039 0.805631
vt 0.394235 0.781089
vt 0.369348 0.840618
vt 0.246110 0.839089
vt 0.246718 0.790038
vt 0.369956 0.791567
vt 0.956554 0.950777
vt 0.945431 0.971579
vt 0.291513 0.694518
vt 0.282174 0.629712
vt 0.305601 0.620321
vt 0.315167 0.686697
vt 0.489972 0.842114
vt 0.490580 0.793063
vt 0.641331 0.812722
vt 0.632875 0.836959
vt 0.007777 0.957942
vt 0.009968 0.978567
vt 0.447421 0.837010
vt 0.446249 0.787969
vt 0.288329 0.790327
vt 0.370850 0.791350
vt 0.370242 0.840401
vt 0.287720 0.839377
vt 0.559334 0.812169
vt 0.564964 0.772633
vt 0.763660 0.218946
vt 0.801749 0.143274
vt 0.825290 0.247318
vt 0.828462 0.089432
vt 0.763660 0.067147
vt 0.763660 0.311622
vt 0.702029 0.247318
vt 0.725570 0.143274
vt 0.801749 0.048016
vt 0.649158 0.150533
vt 0.639111 0.209376
vt 0.621269 0.177988
vt 0.912537 0.224735
vt 0.904242 0.183756
vt 0.929499 0.199409
vt 0.898068 0.230334
vt 0.892810 0.279725
vt 0.873234 0.266982
vt 0.891529 0.113358
vt 0.901599 0.166947
vt 0.874556 0.128524
vt 0.649346 0.262893
vt 0.633042 0.288451
vt 0.622435 0.248334
vt 0.639587 0.108456
vt 0.929499 0.250062
vt 0.882023 0.197282
vt 0.876696 0.086972
vt 0.919660 0.291042
vt 0.904242 0.265715
vt 0.919660 0.158429
vt 0.678381 0.085992
vt 0.983948 0.244736
vt 0.968254 0.219410
vt 0.983948 0.194083
vt 0.698858 0.089432
vt 0.725570 0.048016
vt 0.663939 0.171191
vt 0.658807 0.266444
vt 0.702029 0.339540
vt 0.763660 0.375844
vt 0.825290 0.339540
vt 0.868513 0.266444
vt 0.767307 0.389674
vt 0.741981 0.339056
vt 0.792634 0.339056
vt 0.044392 0.695601
vt 0.069719 0.645284
vt 0.095045 0.695601
vt 0.863380 0.171191
vt 0.597362 0.810293
vt 0.595615 0.785822
vt 0.635642 0.933695
vt 0.156853 0.935097
vt 0.009635 0.934498
vt 0.949072 0.929133
vt 0.826020 0.938024
vt 0.635783 0.978632
vt 0.156985 0.980075
vt 0.010765 0.985978
vt 0.941881 0.984003
vt 0.828867 0.984701
vt 0.257048 0.627318
vt 0.237547 0.594945
vt 0.598033 0.834817
vt 0.568829 0.850959
vt 0.538178 0.837771
vt 0.535819 0.829740
vt 0.522599 0.829777
vt 0.009318 0.940228
vt 0.228808 0.938327
vt 0.591844 0.786385
vt 0.634653 0.787937
vt 0.266614 0.693695
vt 0.820588 0.934145
vt 0.944781 0.933240
vt 0.484636 0.829886
vt 0.394375 0.830144
vt 0.603472 0.829546
vt 0.680408 0.829327
vt 0.515520 0.783618
vt 0.385627 0.845299
vt 0.651080 0.936431
vt 0.514663 0.936431
vt 0.666444 0.834842
vt 0.618137 0.836943
vt 0.246264 0.552490
vt 0.763392 0.829090
vt 0.771277 0.804540
vt 0.483673 0.839550
vt 0.424679 0.838818
vt 0.425288 0.789767
vt 0.484281 0.790499
vt 0.763252 0.780035
vt 0.730784 0.778079
vt 0.741056 0.829962
vt 0.744778 0.829498
vt 0.729365 0.782465
vt 0.413151 0.644069
vt 0.040947 0.443875
vt 0.317321 0.044141
vt 0.440321 0.042841
vt 0.413151 0.644069
vt 0.440321 0.042841
vt 0.317321 0.044141
vt 0.040947 0.443875
vn 0.0000 -0.0000 1.0000
vn 0.0000 0.0000 -1.0000
vn 0.2998 -0.0080 0.9540
vn 0.3690 -0.1184 0.9218
vn 0.3552 0.0216 0.9346
vn 0.3179 0.0054 0.9481
vn 0.2998 -0.0080 -0.9540
vn 0.3690 -0.1184 -0.9218
vn 0.3552 0.0216 -0.9346
vn 0.3179 0.0054 -0.9481
vn 0.0000 -1.0000 0.0000
vn 0.8228 0.3338 -0.4600
vn 1.0000 0.0077 0.0000
vn -0.1943 -0.9809 0.0000
vn -0.9493 -0.0041 -0.3143
vn 0.7626 -0.5840 -0.2782
vn -0.9493 0.0000 -0.3143
vn 0.5317 0.6812 -0.5032
vn 0.9962 0.0868 0.0000
vn 0.1031 0.8832 -0.4576
vn 0.9994 -0.0341 0.0000
vn 0.6189 -0.7423 -0.2571
vn 0.8775 -0.4077 -0.2524
vn 0.8196 -0.5064 -0.2680
vn -0.8599 0.5105 0.0000
vn -0.9160 0.3288 -0.2299
vn -0.0339 -0.9922 -0.1202
vn -0.6802 0.7330 0.0000
vn 0.5410 0.6741 -0.5029
vn -0.9493 0.0041 -0.3143
vn -0.5989 -0.8008 0.0000
vn -0.9619 0.2735 0.0000
vn 0.8691 -0.4239 -0.2551
vn 0.0318 0.9351 -0.3531
vn 0.0323 0.9892 -0.1429
vn 0.2992 0.9399 -0.1647
vn -0.0848 0.9925 -0.0886
vn -0.0848 0.9925 0.0886
vn 0.0323 0.9892 0.1429
vn 0.6138 0.7449 -0.2614
vn 0.0142 0.6292 -0.7771
vn -0.5994 0.7399 -0.3052
vn -0.3500 0.6690 0.6557
vn 0.3228 0.6632 0.6753
vn 0.6507 0.3386 -0.6797
vn -0.2111 0.2876 -0.9342
vn -0.9217 0.3880 0.0000
vn -0.2111 0.2876 0.9342
vn 0.6507 0.3386 0.6797
vn 0.2008 0.4125 0.8885
vn 0.0142 0.6292 0.7771
vn -0.6078 0.4770 0.6349
vn -0.5994 0.7399 0.3052
vn -0.6078 0.4770 -0.6349
vn -0.3500 0.6690 -0.6557
vn 0.2008 0.4125 -0.8885
vn 0.3228 0.6632 -0.6753
vn 0.8442 0.5360 0.0000
vn 0.6138 0.7449 0.2614
vn 0.1963 0.9162 0.3492
vn 0.0676 0.9518 0.2991
vn -0.0157 0.8981 0.4396
vn -0.1695 0.9116 0.3745
vn -0.1795 0.9657 0.1875
vn -0.3104 0.9430 0.1200
vn -0.3104 0.9430 -0.1200
vn -0.1795 0.9657 -0.1875
vn -0.1695 0.9116 -0.3745
vn 0.2992 0.9399 0.1647
vn 0.2240 0.9746 0.0000
vn 0.1050 0.9945 0.0000
vn -0.0157 0.8981 -0.4396
vn 0.0676 0.9518 -0.2991
vn 0.1963 0.9162 -0.3492
vn -0.1189 0.9364 -0.3302
vn -0.4943 -0.0076 -0.8692
vn -0.3952 -0.0162 -0.9184
vn -0.4879 0.1886 -0.8523
vn -0.4931 0.0047 -0.8700
vn -0.4943 -0.0076 0.8692
vn -0.3952 -0.0162 0.9184
vn -0.4879 0.1886 0.8523
vn -0.4931 0.0047 0.8699
vn -0.1190 0.9364 0.3302
vn 0.0318 0.9351 0.3531
vn 0.8691 -0.4239 0.2551
vn -0.9493 0.0041 0.3143
vn 0.5410 0.6741 0.5029
vn -0.0339 -0.9922 0.1202
vn -0.9160 0.3288 0.2299
vn 0.8196 -0.5064 0.2680
vn 0.8775 -0.4077 0.2524
vn 0.6189 -0.7423 0.2571
vn 0.1031 0.8832 0.4576
vn 0.5317 0.6812 0.5032
vn -0.9493 0.0000 0.3143
vn 0.7626 -0.5840 0.2782
vn -0.9493 -0.0041 0.3143
vn 0.8228 0.3338 0.4600
vn 0.8508 -0.4229 0.3118
vn -0.5790 0.8153 0.0000
vn 0.8508 -0.4229 -0.3118
vn 0.8209 -0.5711 0.0000
vn -0.9989 0.0479 0.0000
vn 0.0067 -1.0000 0.0000
vn 0.4770 0.8789 0.0000
usemtl harp_material
s off
f 25/1/1 17/2/1 4/3/1 12/4/1
f 24/5/1 13/6/1 8/7/1 18/8/1
f 36/9/2 27/10/2 45/11/2 43/12/2
f 104/13/1 21/14/1 7/15/1 103/16/1
f 106/17/2 105/18/2 38/19/2 44/20/2
f 6/21/1 19/22/1 22/23/1 11/24/1
f 11/24/1 22/23/1 16/25/1 2/26/1
f 79/27/3 77/28/3 20/29/3 23/30/3
f 78/31/4 79/32/4 23/33/4 15/34/4
f 15/35/1 23/36/1 19/22/1 6/21/1
f 80/37/5 75/38/5 13/39/5 24/40/5
f 77/41/6 80/37/6 24/40/6 20/42/6
f 47/43/2 41/44/2 40/45/2 31/46/2
f 18/47/1 8/48/1 17/2/1 25/1/1
f 48/49/2 29/50/2 30/51/2 39/52/2
f 21/14/1 25/1/1 12/4/1 7/15/1
f 27/10/2 28/53/2 37/54/2 45/11/2
f 83/55/7 46/56/7 42/57/7 81/58/7
f 82/59/8 35/60/8 46/56/8 83/55/8
f 35/61/2 36/9/2 43/12/2 46/62/2
f 84/63/9 47/64/9 31/65/9 76/66/9
f 81/67/10 42/68/10 47/64/10 84/63/10
f 41/69/2 48/49/2 39/52/2 40/70/2
f 44/20/2 38/19/2 29/50/2 48/49/2
f 102/71/11 85/72/11 32/73/11 76/74/11
f 88/75/12 87/76/12 37/77/12 28/78/12
f 20/79/13 24/80/13 47/81/13 42/82/13
f 22/83/14 19/84/14 43/85/14 45/86/14
f 90/87/15 89/88/15 34/89/15 33/90/15
f 92/91/16 91/92/16 39/93/16 30/94/16
f 89/95/17 93/96/17 9/97/17 34/98/17
f 95/99/18 94/100/18 36/101/18 35/102/18
f 24/80/19 18/103/19 41/104/19 47/81/19
f 94/105/20 96/106/20 27/107/20 36/108/20
f 23/109/21 20/110/21 42/111/21 46/112/21
f 107/113/22 97/114/22 38/115/22 105/116/22
f 97/114/23 98/117/23 29/118/23 38/115/23
f 91/92/24 99/119/24 40/120/24 39/93/24
f 25/121/25 21/122/25 44/123/25 48/124/25
f 93/96/26 100/125/26 26/126/26 9/97/26
f 99/127/27 86/128/27 31/129/27 40/130/27
f 18/131/28 25/121/28 48/124/28 41/132/28
f 96/106/29 88/133/29 28/134/29 27/107/29
f 85/135/30 90/87/30 33/90/30 32/136/30
f 19/84/31 23/137/31 46/138/31 43/85/31
f 104/139/32 22/140/32 45/141/32 106/142/32
f 98/117/33 92/91/33 30/94/33 29/118/33
f 101/143/34 95/99/34 35/102/34 82/144/34
f 49/145/35 56/146/35 55/147/35
f 50/148/36 56/146/36 58/149/36
f 49/145/37 55/147/37 60/150/37
f 49/145/38 60/150/38 62/151/38
f 49/145/39 62/151/39 59/152/39
f 50/148/40 58/149/40 65/153/40
f 51/154/41 57/155/41 67/156/41
f 52/157/42 61/158/42 69/159/42
f 53/160/43 63/161/43 71/162/43
f 54/163/44 64/164/44 73/165/44
f 50/166/45 65/167/45 68/168/45
f 51/154/46 67/156/46 70/169/46
f 52/157/47 69/159/47 72/170/47
f 53/160/48 71/162/48 74/171/48
f 54/163/49 73/165/49 66/172/49
f 73/165/50 64/164/50 74/171/50
f 64/164/51 53/160/51 74/171/51
f 71/173/52 63/174/52 72/170/52
f 63/174/53 52/157/53 72/170/53
f 69/159/54 61/158/54 70/175/54
f 61/176/55 51/154/55 70/169/55
f 67/156/56 57/155/56 68/168/56
f 57/155/57 50/166/57 68/168/57
f 65/177/58 58/178/58 66/179/58
f 58/149/59 54/180/59 66/181/59
f 59/152/60 64/182/60 54/180/60
f 59/152/61 62/151/61 64/182/61
f 62/151/62 53/183/62 64/182/62
f 62/151/63 63/184/63 53/183/63
f 62/151/64 60/150/64 63/184/64
f 60/150/65 52/185/65 63/184/65
f 60/150/66 61/186/66 52/185/66
f 60/150/67 55/147/67 61/186/67
f 55/147/68 51/187/68 61/186/68
f 58/149/69 59/152/69 54/180/69
f 58/188/70 56/189/70 59/190/70
f 56/191/71 49/192/71 59/193/71
f 55/147/72 57/194/72 51/187/72
f 55/147/73 56/146/73 57/194/73
f 56/146/74 50/148/74 57/194/74
f 100/195/75 101/143/75 82/144/75 26/196/75
f 86/128/11 102/71/11 76/74/11 31/129/11
f 34/197/76 81/67/76 84/63/76 33/198/76
f 33/198/77 84/63/77 76/66/77 32/199/77
f 26/200/78 82/59/78 83/55/78 9/201/78
f 9/201/79 83/55/79 81/67/79 34/197/79
f 5/202/80 14/203/80 80/37/80 77/41/80
f 14/203/81 3/204/81 75/38/81 80/37/81
f 1/205/82 10/206/82 79/32/82 78/31/82
f 10/206/83 5/202/83 77/41/83 79/32/83
f 13/207/11 75/208/11 102/71/11 86/128/11
f 1/209/84 78/210/84 101/143/84 100/195/84
f 78/210/85 15/211/85 95/99/85 101/143/85
f 12/212/86 4/213/86 92/91/86 98/117/86
f 3/214/87 14/215/87 90/87/87 85/135/87
f 11/216/88 2/217/88 88/133/88 96/106/88
f 8/218/89 13/207/89 86/128/89 99/127/89
f 10/219/90 1/220/90 100/125/90 93/96/90
f 17/221/91 8/222/91 99/119/91 91/92/91
f 7/223/92 12/212/92 98/117/92 97/114/92
f 103/224/93 7/223/93 97/114/93 107/113/93
f 6/225/94 11/216/94 96/106/94 94/105/94
f 15/211/95 6/226/95 94/100/95 95/99/95
f 5/227/96 10/219/96 93/96/96 89/95/96
f 4/213/97 17/221/97 91/92/97 92/91/97
f 14/215/98 5/228/98 89/88/98 90/87/98
f 2/229/99 16/230/99 87/76/99 88/75/99
f 75/208/11 3/231/11 85/72/11 102/71/11
f 16/232/100 103/224/100 107/113/100 87/233/100
f 21/234/101 104/235/101 106/236/101 44/237/101
f 87/233/102 107/113/102 105/116/102 37/238/102
f 45/239/2 37/240/2 105/18/2 106/17/2
f 22/241/1 104/13/1 103/16/1 16/242/1
f 108/243/2 109/244/2 111/245/2 110/246/2
f 113/247/1 112/248/1 115/249/1 114/250/1
f 109/244/103 114/250/103 115/249/103 111/245/103
f 110/246/104 112/248/104 113/247/104 108/243/104
f 111/245/105 115/249/105 112/248/105 110/246/105
f 108/243/106 113/247/106 114/250/106 109/244/106
