# Blender 3.4.0
# www.blender.org
mtllib matchbox_1.mtl
o matchbox_1
v -0.055000 -0.000000 0.030250
v -0.055000 0.023352 0.030250
v -0.055000 -0.000000 -0.033000
v -0.055000 0.023352 -0.033000
v 0.038724 -0.000000 0.030250
v 0.038724 0.023352 0.030250
v 0.038724 -0.000000 -0.033000
v 0.038724 0.023352 -0.033000
vn -1.0000 -0.0000 -0.0000
vn -0.0000 -0.0000 -1.0000
vn 1.0000 -0.0000 -0.0000
vn -0.0000 -0.0000 1.0000
vn -0.0000 -1.0000 -0.0000
vn -0.0000 1.0000 -0.0000
vt -0.000000 0.000000
vt 0.000000 0.216216
vt 0.000000 0.405405
vt -0.000000 0.216216
vt 0.000000 0.405405
vt 0.687500 0.000000
vt 0.000000 0.216216
vt 0.000000 1.000000
vt 0.687500 0.216216
vt 0.000000 0.405405
vt 0.000000 1.000000
vt -0.000000 0.000000
vt 1.000000 0.216216
vt 1.000000 0.405405
vt -0.000000 0.216216
vt 1.000000 0.405405
vt 1.000000 0.216216
vt 0.687500 0.000000
vt 1.000000 1.000000
vt 1.000000 0.405405
vt 0.687500 0.216216
vt 1.000000 1.000000
s 0
usemtl matchbox_1
f 1/1/1 2/4/1 4/9/1 3/6/1
f 3/7/2 4/10/2 8/20/2 7/17/2
f 7/18/3 8/21/3 6/15/3 5/12/3
f 5/13/4 6/16/4 2/5/4 1/2/4
f 3/8/5 7/19/5 5/14/5 1/3/5
f 8/22/6 4/11/6 2/5/6 6/16/6
