# Blender 3.4.0
# www.blender.org
mtllib metal_scrap.mtl
o metal_scrap
v 0.011080 0.040000 -0.083331
v 0.191660 0.040000 0.000178
v 0.141266 0.040000 0.108247
v 0.007808 0.040000 -0.067265
v -0.193337 0.020000 -0.088599
v -0.200869 0.020000 -0.087272
v -0.207501 0.020000 -0.078414
v -0.207954 0.020000 0.071265
v -0.203082 0.020000 0.079677
v -0.193783 0.020000 0.084543
v 0.186618 0.020000 0.085851
v 0.194732 0.020000 0.081059
v 0.199164 0.020000 0.074048
v 0.199530 0.020000 -0.079096
v 0.195104 0.020000 -0.085010
v 0.185136 0.020000 -0.088326
v 0.008221 0.030000 0.016226
v -0.024225 0.030000 -0.022442
v -0.146688 0.030000 0.080316
v -0.113671 0.030000 0.119663
v 0.011080 0.049750 -0.083331
v 0.191660 0.049750 0.000178
v 0.141266 0.049750 0.108247
v 0.007808 0.049750 -0.067265
v -0.193337 0.029750 -0.088599
v -0.200869 0.029750 -0.087272
v -0.207501 0.029750 -0.078414
v -0.207954 0.029750 0.071265
v -0.203082 0.029750 0.079677
v -0.193783 0.029750 0.084543
v 0.186618 0.029750 0.085851
v 0.194732 0.029750 0.081059
v 0.199164 0.029750 0.074048
v 0.199530 0.029750 -0.079096
v 0.195104 0.029750 -0.085010
v 0.185136 0.029750 -0.088326
v 0.008221 0.039750 0.016226
v -0.024225 0.039750 -0.022442
v -0.146688 0.039750 0.080316
v -0.113671 0.039750 0.119663
v -0.158560 0.030000 -0.142644
v -0.194253 0.030000 -0.106951
v -0.081212 0.030000 0.006089
v -0.044892 0.030000 -0.030230
v -0.158560 0.039750 -0.142644
v -0.194253 0.039750 -0.106951
v -0.081212 0.039750 0.006089
v -0.044892 0.039750 -0.030230
v -0.073470 0.050000 -0.031697
v -0.060406 0.050000 0.017060
v 0.094011 0.050000 -0.024315
v 0.080717 0.050000 -0.073929
v -0.073470 0.059750 -0.031697
v -0.060406 0.059750 0.017060
v 0.094011 0.059750 -0.024315
v 0.080717 0.059750 -0.073929
v -0.098077 -0.000000 -0.085660
v -0.114787 -0.000000 0.112592
v -0.233576 -0.000000 0.102199
v -0.114294 -0.000000 -0.083239
v -0.098077 0.009750 -0.085660
v -0.114787 0.009750 0.112592
v -0.233576 0.009750 0.102199
v -0.114294 0.009750 -0.083239
v 0.040344 0.000000 0.024827
v 0.087778 0.000000 0.042091
v 0.142454 0.000000 -0.108132
v 0.094188 0.000000 -0.125699
v 0.040344 0.009750 0.024827
v 0.087778 0.009750 0.042091
v 0.142454 0.009750 -0.108132
v 0.094188 0.009750 -0.125699
vn -0.0000 -1.0000 -0.0000
vn -0.4637 -0.0000 0.8860
vn 0.9063 -0.0000 0.4226
vn 0.7660 -0.0000 -0.6428
vn -0.0034 -0.0000 1.0000
vn -0.7960 -0.0000 0.6053
vn -0.6428 -0.0000 -0.7660
vn 0.5085 -0.0000 0.8611
vn -0.9799 -0.0000 -0.1995
vn -0.7660 -0.0000 0.6428
vn 0.8453 -0.0000 0.5343
vn -0.1735 -0.0000 -0.9848
vn 0.6470 -0.0000 0.7625
vn 1.0000 -0.0000 0.0024
vn -0.8005 -0.0000 -0.5994
vn 0.8006 -0.0000 -0.5992
vn -1.0000 -0.0000 -0.0030
vn 0.3157 -0.0000 -0.9489
vn -0.8653 -0.0000 0.5012
vn -0.0000 1.0000 -0.0000
vn 0.0007 -0.0000 -1.0000
vn -0.7071 -0.0000 -0.7071
vn -0.7071 -0.0000 0.7071
vn 0.7071 -0.0000 0.7071
vn 0.7032 -0.0000 -0.7110
vn -0.9659 -0.0000 0.2588
vn 0.2588 -0.0000 0.9659
vn 0.9659 -0.0000 -0.2588
vn -0.2642 -0.0000 -0.9645
vn -0.0872 -0.0000 0.9962
vn -0.8410 -0.0000 -0.5410
vn -0.1476 -0.0000 -0.9890
vn 0.9965 -0.0000 0.0840
vn -0.3420 -0.0000 0.9397
vn 0.9397 -0.0000 0.3420
vn 0.3420 -0.0000 -0.9397
vn -0.9416 -0.0000 -0.3368
vn 0.4197 -0.0000 -0.9076
vt 0.857349 0.831701
vt 0.280967 0.455927
vt 0.324948 0.442796
vt 0.959377 0.832026
vt 0.328686 0.455927
vt 0.324948 0.339608
vt 0.959377 0.770876
vt 0.390441 0.455927
vt 0.859311 0.823525
vt 0.290148 0.455927
vt 0.749571 0.740307
vt 0.313519 0.559606
vt 0.745709 0.739627
vt 0.313519 0.563910
vt 0.278715 0.467355
vt 0.742307 0.735084
vt 0.283777 0.467355
vt 0.742075 0.658326
vt 0.369308 0.467355
vt 0.744574 0.654012
vt 0.313519 0.565174
vt 0.374114 0.467355
vt 0.749342 0.651517
vt 0.313519 0.559861
vt 0.944420 0.650846
vt 0.313519 0.342489
vt 0.948581 0.653303
vt 0.313519 0.337852
vt 0.374904 0.467355
vt 0.950854 0.656899
vt 0.370898 0.467355
vt 0.951041 0.735434
vt 0.283387 0.467355
vt 0.948772 0.738467
vt 0.280008 0.467355
vt 0.313519 0.337640
vt 0.943660 0.740168
vt 0.313519 0.343336
vt 0.110691 0.939139
vt 0.337857 0.461641
vt 0.319233 0.444430
vt 0.084805 0.939140
vt 0.315761 0.461641
vt 0.319233 0.462971
vt 0.084806 0.857158
vt 0.319233 0.532949
vt 0.374480 0.461641
vt 0.111146 0.857158
vt 0.396964 0.461641
vt 0.319233 0.514083
vt 0.280967 0.450355
vt 0.857349 0.831701
vt 0.330519 0.442796
vt 0.328686 0.450355
vt 0.959377 0.832026
vt 0.330519 0.339608
vt 0.390441 0.450355
vt 0.959377 0.770876
vt 0.290148 0.450355
vt 0.859311 0.823525
vt 0.319090 0.559606
vt 0.749571 0.740307
vt 0.319090 0.563910
vt 0.278715 0.461784
vt 0.745709 0.739627
vt 0.283777 0.461784
vt 0.742307 0.735084
vt 0.369308 0.461784
vt 0.742075 0.658326
vt 0.319090 0.565174
vt 0.374114 0.461784
vt 0.744574 0.654012
vt 0.319090 0.559861
vt 0.749342 0.651517
vt 0.319090 0.342489
vt 0.944420 0.650846
vt 0.319090 0.337852
vt 0.374904 0.461784
vt 0.948581 0.653303
vt 0.370898 0.461784
vt 0.950854 0.656899
vt 0.283387 0.461784
vt 0.951041 0.735434
vt 0.280008 0.461784
vt 0.319090 0.337640
vt 0.948772 0.738467
vt 0.319090 0.343336
vt 0.943660 0.740168
vt 0.337857 0.456069
vt 0.324805 0.444430
vt 0.110691 0.939139
vt 0.315761 0.456069
vt 0.324805 0.462971
vt 0.084805 0.939140
vt 0.324805 0.532949
vt 0.374480 0.456069
vt 0.084806 0.857158
vt 0.396964 0.456069
vt 0.324805 0.514083
vt 0.111146 0.857158
vt 0.110691 0.939139
vt 0.319233 0.539733
vt 0.084805 0.939140
vt 0.319233 0.560129
vt 0.084806 0.857158
vt 0.319233 0.495535
vt 0.332065 0.461641
vt 0.111146 0.857158
vt 0.311310 0.461641
vt 0.319233 0.474780
vt 0.324805 0.539733
vt 0.110691 0.939139
vt 0.324805 0.560129
vt 0.084805 0.939140
vt 0.324805 0.495535
vt 0.332065 0.456069
vt 0.084806 0.857158
vt 0.311310 0.456069
vt 0.324805 0.474780
vt 0.111146 0.857158
vt 0.110691 0.939139
vt 0.310472 0.450212
vt 0.330662 0.491111
vt 0.084805 0.939140
vt 0.338334 0.450212
vt 0.330662 0.483645
vt 0.084806 0.857158
vt 0.330662 0.395407
vt 0.314690 0.450212
vt 0.111146 0.857158
vt 0.286340 0.450212
vt 0.330662 0.403004
vt 0.310472 0.444641
vt 0.336233 0.491111
vt 0.110691 0.939139
vt 0.338334 0.444641
vt 0.336233 0.483645
vt 0.084805 0.939140
vt 0.336233 0.395407
vt 0.314690 0.444641
vt 0.084806 0.857158
vt 0.286340 0.444641
vt 0.336233 0.403004
vt 0.111146 0.857158
vt 0.857349 0.831701
vt 0.302090 0.505172
vt 0.279637 0.478784
vt 0.959377 0.832026
vt 0.302090 0.514721
vt 0.392923 0.478784
vt 0.959377 0.770876
vt 0.302090 0.582600
vt 0.386984 0.478784
vt 0.859311 0.823525
vt 0.281020 0.478784
vt 0.302090 0.514438
vt 0.307662 0.505172
vt 0.857349 0.831701
vt 0.279637 0.473212
vt 0.307662 0.514721
vt 0.959377 0.832026
vt 0.392923 0.473212
vt 0.307662 0.582600
vt 0.386984 0.473212
vt 0.959377 0.770876
vt 0.281020 0.473212
vt 0.307662 0.514438
vt 0.859311 0.823525
vt 0.110691 0.939139
vt 0.302090 0.426074
vt 0.342772 0.478784
vt 0.084805 0.939140
vt 0.302090 0.398969
vt 0.352637 0.478784
vt 0.084806 0.857158
vt 0.266795 0.478784
vt 0.302090 0.367725
vt 0.111146 0.857158
vt 0.302090 0.395306
vt 0.256757 0.478784
vt 0.307662 0.426074
vt 0.342772 0.473212
vt 0.110691 0.939139
vt 0.307662 0.398969
vt 0.352637 0.473212
vt 0.084805 0.939140
vt 0.266795 0.473212
vt 0.307662 0.367725
vt 0.084806 0.857158
vt 0.307662 0.395306
vt 0.256757 0.473212
vt 0.111146 0.857158
s 0
usemtl scifi_texture_1
f 1/1/1 2/4/1 3/7/1 4/9/1
f 15/34/1 14/32/1 13/30/1 12/27/1 11/25/1 10/23/1 9/20/1 8/18/1 7/16/1 6/13/1 5/11/1 16/37/1
f 17/39/1 20/48/1 19/45/1 18/42/1
f 9/21/2 10/24/2 30/73/2 29/70/2
f 3/8/3 2/5/3 22/54/3 23/57/3
f 17/40/4 18/43/4 38/92/4 37/89/4
f 10/24/5 11/26/5 31/75/5 30/73/5
f 4/10/6 3/8/6 23/57/6 24/59/6
f 18/44/7 19/46/7 39/95/7 38/93/7
f 11/26/8 12/28/8 32/77/8 31/75/8
f 1/2/9 4/10/9 24/59/9 21/51/9
f 19/47/10 20/49/10 40/98/10 39/96/10
f 12/29/11 13/31/11 33/80/11 32/78/11
f 5/12/12 6/14/12 26/63/12 25/61/12
f 20/50/13 17/41/13 37/90/13 40/99/13
f 13/31/14 14/33/14 34/82/14 33/80/14
f 6/15/15 7/17/15 27/66/15 26/64/15
f 14/33/16 15/35/16 35/84/16 34/82/16
f 7/17/17 8/19/17 28/68/17 27/66/17
f 15/36/18 16/38/18 36/87/18 35/85/18
f 8/19/19 9/22/19 29/71/19 28/68/19
f 22/55/20 21/52/20 24/60/20 23/58/20
f 16/38/21 5/12/21 25/61/21 36/87/21
f 41/101/1 44/108/1 43/105/1 42/103/1
f 41/102/22 42/104/22 46/113/22 45/111/22
f 42/104/23 43/106/23 47/115/23 46/113/23
f 43/107/24 44/109/24 48/118/24 47/116/24
f 44/110/25 41/102/25 45/111/25 48/119/25
f 49/121/1 52/130/1 51/127/1 50/124/1
f 49/122/26 50/125/26 54/136/26 53/133/26
f 50/126/27 51/128/27 55/139/27 54/137/27
f 51/129/28 52/131/28 56/142/28 55/140/28
f 52/132/29 49/123/29 53/134/29 56/143/29
f 57/145/1 58/148/1 59/151/1 60/154/1
f 59/152/30 58/149/30 62/160/30 63/163/30
f 60/155/31 59/153/31 63/164/31 64/166/31
f 57/146/32 60/156/32 64/167/32 61/157/32
f 63/165/20 62/161/20 61/158/20 64/168/20
f 58/150/33 57/147/33 61/159/33 62/162/33
f 65/169/1 68/178/1 67/175/1 66/172/1
f 65/170/34 66/173/34 70/184/34 69/181/34
f 66/174/35 67/176/35 71/187/35 70/185/35
f 67/177/36 68/179/36 72/190/36 71/188/36
f 68/180/37 65/171/37 69/182/37 72/191/37
f 46/114/20 47/117/20 48/120/20 45/112/20
f 38/94/20 39/97/20 40/100/20 37/91/20
f 2/6/38 1/3/38 21/53/38 22/56/38
f 54/138/20 55/141/20 56/144/20 53/135/20
f 34/83/20 35/86/20 36/88/20 25/62/20 26/65/20 27/67/20 28/69/20 29/72/20 30/74/20 31/76/20 32/79/20 33/81/20
f 70/186/20 71/189/20 72/192/20 69/183/20
