# Blender 3.4.0
# www.blender.org
mtllib nails_1.mtl
o nails_1
v 0.014276 0.006627 0.013500
v 0.013321 0.013032 0.020150
v 0.014750 0.006627 0.020046
v -0.038762 -0.000449 0.023989
v 0.016487 0.020678 0.016632
v 0.016614 0.017820 0.009533
v 0.017943 0.010920 0.006500
v 0.019695 0.004019 0.009310
v 0.017636 0.017820 0.023638
v 0.019388 0.010920 0.026448
v 0.020844 0.001161 0.016316
v 0.020717 0.004019 0.023415
v 0.013076 0.009828 0.006853
v 0.015977 0.000069 0.016669
v 0.014828 0.002927 0.009663
v 0.011621 0.019586 0.016985
v 0.012838 0.013059 0.013576
v 0.011748 0.016728 0.009886
v 0.014522 0.009828 0.026801
v 0.015850 0.002927 0.023768
v 0.012770 0.016728 0.023991
v -0.039237 -0.000449 0.017444
v -0.040192 0.005956 0.024093
v -0.040674 0.005984 0.017519
v -0.049449 0.000576 0.021466
v -0.040337 0.006627 -0.051460
v -0.033907 0.013032 -0.053405
v -0.034605 0.006627 -0.054656
v -0.008416 -0.000449 -0.007824
v -0.038433 0.020678 -0.054788
v -0.044921 0.017820 -0.051903
v -0.048231 0.010920 -0.051825
v -0.046425 0.004019 -0.054600
v -0.032569 0.017820 -0.058790
v -0.030763 0.010920 -0.061565
v -0.040560 0.001161 -0.058603
v -0.034073 0.004019 -0.061487
v -0.045854 0.009828 -0.047563
v -0.038184 0.000069 -0.054341
v -0.044048 0.002927 -0.050339
v -0.036057 0.019586 -0.050526
v -0.039661 0.013059 -0.050189
v -0.042544 0.016728 -0.047641
v -0.028386 0.009828 -0.057304
v -0.031697 0.002927 -0.057226
v -0.030193 0.016728 -0.054528
v -0.014148 -0.000449 -0.004628
v -0.007718 0.005956 -0.006572
v -0.013471 0.005984 -0.003356
v -0.006186 0.000576 0.002928
v 0.038864 0.006627 -0.050337
v 0.042491 0.013032 -0.044682
v 0.043504 0.006627 -0.045696
v 0.005609 -0.000449 -0.007708
v 0.042585 0.020678 -0.049415
v 0.038037 0.017820 -0.054867
v 0.037058 0.010920 -0.058030
v 0.040221 0.004019 -0.057051
v 0.048037 0.017820 -0.044867
v 0.051200 0.010920 -0.043888
v 0.045673 0.001161 -0.052503
v 0.050221 0.004019 -0.047051
v 0.033608 0.009828 -0.054580
v 0.042223 0.000069 -0.049053
v 0.036771 0.002927 -0.053601
v 0.039135 0.019586 -0.045964
v 0.037826 0.013059 -0.049339
v 0.034587 0.016728 -0.051417
v 0.047750 0.009828 -0.040438
v 0.046771 0.002927 -0.043601
v 0.044587 0.016728 -0.041417
v 0.000969 -0.000449 -0.012348
v 0.004596 0.005956 -0.006694
v -0.000069 0.005984 -0.011351
v -0.004124 0.000576 -0.002625
v -0.006144 0.006627 0.065359
v -0.007710 0.013032 0.058826
v -0.009000 0.006627 0.059450
v 0.039284 -0.000449 0.036043
v -0.009355 0.020678 0.063264
v -0.006854 0.017820 0.069909
v -0.006970 0.010920 0.073218
v -0.009635 0.004019 0.071253
v -0.013008 0.017820 0.057175
v -0.015672 0.010920 0.055210
v -0.013288 0.001161 0.065164
v -0.015788 0.004019 0.058519
v -0.002577 0.009828 0.071095
v -0.008894 0.000069 0.063041
v -0.005242 0.002927 0.069130
v -0.004962 0.019586 0.061141
v -0.004836 0.013059 0.064758
v -0.002461 0.016728 0.067786
v -0.011279 0.009828 0.053087
v -0.011395 0.002927 0.056396
v -0.008614 0.016728 0.055052
v 0.042139 -0.000449 0.041953
v 0.040574 0.005956 0.035420
v 0.043448 0.005984 0.041352
v 0.050148 0.000576 0.034446
v -0.059125 0.006627 0.034635
v -0.065094 0.013032 0.031552
v -0.065465 0.006627 0.032936
v -0.051641 -0.000449 -0.018910
v -0.062809 0.020678 0.035697
v -0.056144 0.017820 0.038145
v -0.053715 0.010920 0.040395
v -0.056944 0.004019 0.041128
v -0.069805 0.017820 0.034485
v -0.073034 0.010920 0.035218
v -0.063939 0.001161 0.039916
v -0.070604 0.004019 0.037468
v -0.052452 0.009828 0.035682
v -0.062677 0.000069 0.035203
v -0.055681 0.002927 0.036415
v -0.061546 0.019586 0.030984
v -0.058725 0.013059 0.033252
v -0.054882 0.016728 0.033432
v -0.071771 0.009828 0.030505
v -0.069341 0.002927 0.032755
v -0.068542 0.016728 0.029772
v -0.045301 -0.000449 -0.017211
v -0.051270 0.005956 -0.020295
v -0.044901 0.005984 -0.018595
v -0.045753 0.000576 -0.028179
v 0.050390 0.006627 -0.012203
v 0.057106 0.013032 -0.012058
v 0.056830 0.006627 -0.013464
v 0.067211 -0.000449 0.039180
v 0.053231 0.020678 -0.014776
v 0.046169 0.017820 -0.014044
v 0.042998 0.010920 -0.014997
v 0.045575 0.004019 -0.017075
v 0.060047 0.017820 -0.016763
v 0.062625 0.010920 -0.018842
v 0.052391 0.001161 -0.019063
v 0.059454 0.004019 -0.019794
v 0.043936 0.009828 -0.010209
v 0.053329 0.000069 -0.014274
v 0.046513 0.002927 -0.012287
v 0.054169 0.019586 -0.009988
v 0.050638 0.013059 -0.010785
v 0.047107 0.016728 -0.009256
v 0.063563 0.009828 -0.014054
v 0.060392 0.002927 -0.015006
v 0.060985 0.016728 -0.011975
v 0.060770 -0.000449 0.040441
v 0.067486 0.005956 0.040586
v 0.061019 0.005984 0.041860
v 0.065997 0.000576 0.050093
vn 0.9733 0.2184 -0.0705
vn -0.9733 -0.2184 0.0705
vn -0.6695 -0.1376 -0.7299
vn 0.0447 -0.7225 -0.6900
vn 0.1453 -0.7213 0.6772
vn -0.0232 -0.7100 0.7038
vn -0.1246 -0.7119 -0.6912
vn -0.4443 -0.8953 0.0322
vn -0.7826 0.6200 0.0567
vn -0.5573 -0.1376 0.8188
vn -0.1430 0.6809 -0.7183
vn -0.3671 0.6541 -0.6614
vn -0.0360 0.6803 0.7320
vn -0.2658 0.6528 0.7094
vn -0.5335 -0.6734 -0.5118
vn -0.7727 0.3981 -0.4944
vn -0.4542 -0.6734 0.5833
vn -0.6934 0.3981 0.6007
vn -0.2178 0.9759 0.0158
vn -0.2051 0.6900 -0.6941
vn -0.0723 -0.0000 -0.9974
vn 0.2178 -0.9759 -0.0158
vn 0.1029 -0.6900 -0.7164
vn 0.0723 -0.0000 0.9974
vn 0.2051 -0.6900 0.6941
vn -0.1029 0.6900 0.7164
vn -0.9733 -0.2186 0.0707
vn -0.4753 0.2184 -0.8523
vn 0.4753 -0.2184 0.8523
vn 0.4752 -0.2184 0.8523
vn -0.3786 -0.1376 0.9153
vn -0.6442 -0.7225 0.2511
vn 0.5524 -0.7213 -0.4179
vn 0.6477 -0.7100 -0.2764
vn -0.5738 -0.7119 0.4050
vn 0.2170 -0.8953 0.3891
vn 0.3821 0.6200 0.6853
vn 0.9776 -0.1376 0.1591
vn -0.5906 0.6809 0.4331
vn -0.4443 0.6541 0.6122
vn 0.6787 0.6803 -0.2767
vn 0.7552 0.6528 -0.0589
vn -0.2383 -0.6734 0.6998
vn -0.1216 0.3981 0.9093
vn 0.7206 -0.6734 0.1651
vn 0.8374 0.3981 0.3745
vn 0.1064 0.9759 0.1907
vn -0.5424 0.6900 0.4792
vn -0.8734 -0.0000 0.4870
vn -0.1064 -0.9759 -0.1907
vn -0.6928 -0.6900 0.2095
vn 0.8734 -0.0000 -0.4870
vn 0.5424 -0.6900 -0.4792
vn 0.6928 0.6900 -0.2095
vn 0.4754 -0.2186 0.8522
vn 0.6900 0.2184 -0.6900
vn -0.6900 -0.2184 0.6900
vn -0.9839 -0.1376 -0.1141
vn -0.4176 -0.7225 -0.5511
vn 0.5529 -0.7213 0.4172
vn 0.4428 -0.7100 0.5475
vn -0.5464 -0.7119 -0.4413
vn -0.3150 -0.8953 0.3150
vn -0.5548 0.6200 0.5548
vn 0.1141 -0.1376 0.9839
vn -0.5780 0.6809 -0.4497
vn -0.7103 0.6541 -0.2601
vn 0.4516 0.6803 0.5772
vn 0.2630 0.6528 0.7104
vn -0.7383 -0.6734 -0.0381
vn -0.9079 0.3981 0.1315
vn 0.0381 -0.6734 0.7383
vn -0.1315 0.3981 0.9079
vn -0.1544 0.9759 0.1544
vn -0.6092 0.6900 -0.3908
vn -0.7071 -0.0000 -0.7071
vn 0.1544 -0.9759 -0.1544
vn -0.3908 -0.6900 -0.6092
vn 0.7071 -0.0000 0.7071
vn 0.6092 -0.6900 0.3908
vn 0.3908 0.6900 0.6092
vn -0.6899 -0.2186 0.6901
vn -0.8786 0.2184 0.4246
vn 0.8786 -0.2184 -0.4246
vn 0.8916 -0.1376 0.4314
vn 0.2130 -0.7225 0.6578
vn -0.3849 -0.7213 -0.5759
vn -0.2380 -0.7100 -0.6627
vn 0.3708 -0.7119 0.5965
vn 0.4011 -0.8953 -0.1938
vn 0.7064 0.6200 -0.3414
vn 0.2160 -0.1376 -0.9667
vn 0.3979 0.6809 0.6149
vn 0.5852 0.6541 0.4794
vn -0.2366 0.6803 -0.6937
vn -0.0147 0.6528 -0.7574
vn 0.6847 -0.6734 0.2788
vn 0.9006 0.3981 0.1745
vn 0.2070 -0.6734 -0.7097
vn 0.4229 0.3981 -0.8141
vn 0.1966 0.9759 -0.0950
vn 0.4467 0.6900 0.5695
vn 0.4351 -0.0000 0.9004
vn -0.1966 -0.9759 0.0950
vn 0.1686 -0.6900 0.7039
vn -0.4351 -0.0000 -0.9004
vn -0.4467 -0.6900 -0.5695
vn -0.1686 0.6900 -0.7039
vn 0.8785 -0.2186 -0.4248
vn -0.2526 0.2184 0.9426
vn 0.2526 -0.2184 -0.9426
vn 0.9091 -0.1376 -0.3931
vn 0.6372 -0.7225 0.2685
vn -0.6874 -0.7213 -0.0848
vn -0.6573 -0.7100 -0.2528
vn 0.6938 -0.7119 0.1090
vn 0.1153 -0.8953 -0.4303
vn 0.2031 0.6200 -0.7579
vn -0.5907 -0.1376 -0.7950
vn 0.7254 0.6809 0.1005
vn 0.7452 0.6541 -0.1299
vn -0.6797 0.6803 -0.2741
vn -0.5830 0.6528 -0.4837
vn 0.6584 -0.6734 -0.3362
vn 0.7205 0.3981 -0.5678
vn -0.4021 -0.6734 -0.6204
vn -0.3401 0.3981 -0.8520
vn 0.0565 0.9759 -0.2110
vn 0.7230 0.6900 0.0338
vn 0.9659 -0.0000 0.2588
vn -0.0565 -0.9759 0.2110
vn 0.6430 -0.6900 0.3322
vn -0.9659 -0.0000 -0.2588
vn -0.7230 -0.6900 -0.0338
vn -0.6430 0.6900 -0.3322
vn 0.2524 -0.2186 -0.9426
vn -0.1876 0.2184 -0.9577
vn 0.1876 -0.2184 0.9577
vn -0.6437 -0.1376 0.7528
vn -0.6903 -0.7225 0.0390
vn 0.6547 -0.7213 -0.2260
vn 0.7015 -0.7100 -0.0620
vn -0.6710 -0.7119 0.2072
vn 0.0856 -0.8953 0.4372
vn 0.1508 0.6200 0.7700
vn 0.8801 -0.1376 0.4543
vn -0.6957 0.6809 0.2287
vn -0.6122 0.6541 0.4443
vn 0.7310 0.6803 -0.0527
vn 0.7363 0.6528 0.1781
vn -0.4436 -0.6734 0.5915
vn -0.3975 0.3981 0.8268
vn 0.6339 -0.6734 0.3804
vn 0.6800 0.3981 0.6157
vn 0.0420 0.9759 0.2143
vn -0.6642 0.6900 0.2875
vn -0.9813 -0.0000 0.1923
vn -0.0420 -0.9759 -0.2143
vn -0.7236 -0.6900 -0.0156
vn 0.9813 -0.0000 -0.1922
vn 0.6642 -0.6900 -0.2875
vn 0.7236 0.6900 0.0156
vn 0.1878 -0.2186 0.9576
vt 0.534100 0.515348
vt 0.534100 0.498025
vt 0.498025 0.515348
vt 0.532189 0.510834
vt 0.532189 0.528647
vt 0.510834 0.528647
vt 0.535048 0.528440
vt 0.535048 0.498025
vt 0.498025 0.528440
vt 0.428023 0.473873
vt 0.428023 0.536326
vt 0.526127 0.521611
vt 0.538522 0.521611
vt 0.520411 0.507414
vt 0.538776 0.507414
vt 0.538776 0.520411
vt 0.506610 0.501348
vt 0.541433 0.506610
vt 0.492809 0.506967
vt 0.544937 0.506967
vt 0.544937 0.492809
vt 0.520411 0.535624
vt 0.540820 0.535624
vt 0.540820 0.520411
vt 0.506610 0.541243
vt 0.544324 0.506610
vt 0.487093 0.520980
vt 0.547235 0.520980
vt 0.492809 0.535177
vt 0.546981 0.492809
vt 0.546981 0.535177
vt 0.504426 0.502053
vt 0.531700 0.504426
vt 0.484909 0.521685
vt 0.537502 0.521685
vt 0.490625 0.507672
vt 0.535204 0.507672
vt 0.535204 0.490625
vt 0.523943 0.522316
vt 0.528789 0.522316
vt 0.531224 0.510889
vt 0.531224 0.515499
vt 0.510889 0.515499
vt 0.518227 0.508119
vt 0.529043 0.508119
vt 0.529043 0.518227
vt 0.504426 0.541948
vt 0.534591 0.504426
vt 0.490625 0.535883
vt 0.537248 0.490625
vt 0.537248 0.535883
vt 0.518227 0.536329
vt 0.531087 0.536329
vt 0.531087 0.518227
vt 0.427074 0.523234
vt 0.427074 0.473873
vt 0.425164 0.536533
vt 0.425164 0.486682
vt 0.424199 0.523386
vt 0.424199 0.486738
vt 0.406649 0.531280
vt 0.406649 0.475923
vt 0.424874 0.385427
vt 0.498025 0.385427
vt 0.424874 0.498025
vt 0.510834 0.381538
vt 0.437734 0.381538
vt 0.437734 0.510834
vt 0.436338 0.379035
vt 0.498025 0.379035
vt 0.436338 0.498025
vt 0.473873 0.472700
vt 0.488716 0.472700
vt 0.428681 0.526127
vt 0.428681 0.378772
vt 0.415706 0.520411
vt 0.415706 0.384542
vt 0.520411 0.384542
vt 0.409086 0.506610
vt 0.506610 0.384697
vt 0.412698 0.492809
vt 0.412698 0.379147
vt 0.492809 0.379147
vt 0.440410 0.520411
vt 0.440410 0.370767
vt 0.520411 0.370767
vt 0.444022 0.506610
vt 0.506610 0.365217
vt 0.424427 0.487093
vt 0.424427 0.371142
vt 0.437402 0.492809
vt 0.492809 0.365372
vt 0.437402 0.365372
vt 0.413839 0.504426
vt 0.504426 0.393220
vt 0.429179 0.484909
vt 0.429179 0.379665
vt 0.417451 0.490625
vt 0.417451 0.387670
vt 0.490625 0.387670
vt 0.433434 0.523943
vt 0.433434 0.387295
vt 0.510889 0.387969
vt 0.426226 0.387969
vt 0.426226 0.510889
vt 0.420459 0.518227
vt 0.420459 0.393065
vt 0.518227 0.393065
vt 0.448774 0.504426
vt 0.504426 0.373740
vt 0.442154 0.490625
vt 0.490625 0.373895
vt 0.442154 0.373895
vt 0.445162 0.518227
vt 0.445162 0.379291
vt 0.518227 0.379291
vt 0.473873 0.479092
vt 0.477252 0.479092
vt 0.477252 0.473873
vt 0.490112 0.475203
vt 0.486682 0.475203
vt 0.486738 0.481634
vt 0.478605 0.481634
vt 0.478605 0.486738
vt 0.475924 0.494204
vt 0.493176 0.494204
vt 0.493176 0.475924
vt 0.583275 0.387674
vt 0.583275 0.498025
vt 0.498025 0.387674
vt 0.510834 0.398982
vt 0.590529 0.398982
vt 0.590529 0.510834
vt 0.592556 0.396955
vt 0.592556 0.498025
vt 0.498025 0.396955
vt 0.473873 0.472932
vt 0.516766 0.473873
vt 0.516766 0.472932
vt 0.590717 0.526127
vt 0.590717 0.389518
vt 0.581622 0.520411
vt 0.581622 0.378614
vt 0.520411 0.378614
vt 0.506610 0.372288
vt 0.579663 0.506610
vt 0.585989 0.374246
vt 0.585989 0.492809
vt 0.601622 0.398614
vt 0.601622 0.520411
vt 0.506610 0.400572
vt 0.607948 0.506610
vt 0.596894 0.487093
vt 0.596894 0.383341
vt 0.605989 0.492809
vt 0.492809 0.394246
vt 0.605989 0.394246
vt 0.504426 0.379188
vt 0.572763 0.504426
vt 0.589994 0.484909
vt 0.484909 0.390242
vt 0.589994 0.390242
vt 0.490625 0.381146
vt 0.579089 0.381146
vt 0.579089 0.490625
vt 0.523943 0.396419
vt 0.583817 0.523943
vt 0.583817 0.396419
vt 0.581199 0.510889
vt 0.581199 0.389669
vt 0.510889 0.389669
vt 0.574721 0.385514
vt 0.518227 0.385514
vt 0.504426 0.407472
vt 0.601047 0.504426
vt 0.490625 0.401146
vt 0.599089 0.401146
vt 0.594721 0.405514
vt 0.594721 0.518227
vt 0.507485 0.463651
vt 0.473873 0.463651
vt 0.486682 0.474959
vt 0.514739 0.474959
vt 0.514739 0.486682
vt 0.505409 0.465646
vt 0.486738 0.465646
vt 0.497299 0.475923
vt 0.497299 0.483098
vt 0.475923 0.483098
vt 0.493259 0.619065
vt 0.493259 0.498025
vt 0.498025 0.619065
vt 0.490128 0.510834
vt 0.490128 0.605999
vt 0.510834 0.605999
vt 0.487547 0.607247
vt 0.487547 0.498025
vt 0.498025 0.607247
vt 0.584115 0.473873
vt 0.584115 0.560434
vt 0.526127 0.614875
vt 0.486838 0.614875
vt 0.520411 0.628165
vt 0.491839 0.628165
vt 0.491839 0.520411
vt 0.506610 0.634783
vt 0.491607 0.506610
vt 0.492809 0.630853
vt 0.486277 0.630853
vt 0.486277 0.492809
vt 0.520411 0.602698
vt 0.479532 0.602698
vt 0.479532 0.520411
vt 0.506610 0.598768
vt 0.474203 0.506610
vt 0.487093 0.618676
vt 0.478972 0.618676
vt 0.492809 0.605386
vt 0.473971 0.492809
vt 0.473971 0.605386
vt 0.504426 0.630537
vt 0.500393 0.504426
vt 0.484909 0.614430
vt 0.487759 0.614430
vt 0.490625 0.626606
vt 0.495064 0.626606
vt 0.495064 0.490625
vt 0.523943 0.610629
vt 0.495624 0.610629
vt 0.495876 0.510889
vt 0.495876 0.617863
vt 0.510889 0.617863
vt 0.518227 0.623919
vt 0.500626 0.623919
vt 0.500626 0.518227
vt 0.504426 0.594522
vt 0.482989 0.504426
vt 0.490625 0.601140
vt 0.482757 0.490625
vt 0.482757 0.601140
vt 0.518227 0.598452
vt 0.488319 0.598452
vt 0.488319 0.518227
vt 0.589826 0.572252
vt 0.589826 0.473873
vt 0.586696 0.559187
vt 0.586696 0.486682
vt 0.592443 0.571051
vt 0.592443 0.486738
vt 0.605843 0.557239
vt 0.605843 0.475923
vt 0.387296 0.557617
vt 0.498025 0.557617
vt 0.387296 0.498025
vt 0.510834 0.551451
vt 0.375360 0.551451
vt 0.375360 0.510834
vt 0.374618 0.554220
vt 0.498025 0.554220
vt 0.374618 0.498025
vt 0.473873 0.450527
vt 0.402266 0.450527
vt 0.379929 0.526127
vt 0.379929 0.559741
vt 0.393259 0.520411
vt 0.393259 0.564637
vt 0.520411 0.564637
vt 0.398117 0.506610
vt 0.506610 0.569137
vt 0.391660 0.492809
vt 0.391660 0.570604
vt 0.492809 0.570604
vt 0.365938 0.520411
vt 0.365938 0.557317
vt 0.520411 0.557317
vt 0.359480 0.506610
vt 0.506610 0.558784
vt 0.377668 0.487093
vt 0.377668 0.568179
vt 0.364339 0.492809
vt 0.492809 0.563283
vt 0.364339 0.563283
vt 0.400643 0.504426
vt 0.504426 0.559710
vt 0.380194 0.484909
vt 0.380194 0.558753
vt 0.394186 0.490625
vt 0.394186 0.561178
vt 0.490625 0.561178
vt 0.382455 0.523943
vt 0.382455 0.550315
vt 0.510889 0.554851
vt 0.388097 0.554851
vt 0.388097 0.510889
vt 0.395784 0.518227
vt 0.395784 0.555211
vt 0.518227 0.555211
vt 0.362006 0.504426
vt 0.504426 0.549358
vt 0.366865 0.490625
vt 0.490625 0.553857
vt 0.366865 0.553857
vt 0.368464 0.518227
vt 0.368464 0.547890
vt 0.518227 0.547890
vt 0.414945 0.453924
vt 0.473873 0.453924
vt 0.403008 0.447758
vt 0.486682 0.447758
vt 0.415745 0.451158
vt 0.486738 0.451158
vt 0.414042 0.431990
vt 0.475923 0.431990
vt 0.606327 0.463942
vt 0.498025 0.463942
vt 0.606327 0.498025
vt 0.510834 0.464232
vt 0.619759 0.464232
vt 0.619759 0.510834
vt 0.619208 0.461418
vt 0.498025 0.461418
vt 0.619208 0.498025
vt 0.473873 0.566707
vt 0.639969 0.566707
vt 0.612010 0.526127
vt 0.612010 0.458795
vt 0.597885 0.520411
vt 0.597885 0.460258
vt 0.520411 0.460258
vt 0.591543 0.506610
vt 0.506610 0.458354
vt 0.596698 0.492809
vt 0.596698 0.454197
vt 0.492809 0.454197
vt 0.625642 0.520411
vt 0.625642 0.454821
vt 0.520411 0.454821
vt 0.630797 0.506610
vt 0.506610 0.450664
vt 0.610330 0.487093
vt 0.610330 0.450222
vt 0.624455 0.492809
vt 0.492809 0.448759
vt 0.624455 0.448759
vt 0.593419 0.504426
vt 0.504426 0.467930
vt 0.612206 0.484909
vt 0.612206 0.459799
vt 0.598574 0.490625
vt 0.598574 0.463773
vt 0.490625 0.463773
vt 0.613886 0.523943
vt 0.613886 0.468372
vt 0.510889 0.466778
vt 0.606824 0.466778
vt 0.606824 0.510889
vt 0.599762 0.518227
vt 0.599762 0.469835
vt 0.518227 0.469835
vt 0.632673 0.504426
vt 0.504426 0.460240
vt 0.626331 0.490625
vt 0.490625 0.458336
vt 0.626331 0.458336
vt 0.627518 0.518227
vt 0.627518 0.464397
vt 0.518227 0.464397
vt 0.627087 0.569230
vt 0.473873 0.569230
vt 0.640520 0.569520
vt 0.486682 0.569520
vt 0.627585 0.572066
vt 0.486738 0.572066
vt 0.637542 0.588534
vt 0.475924 0.588534
s 1
usemtl metal_1
f 10/25/1 12/29/1 11/27/1 8/19/1 7/17/1 6/14/1 5/12/1 9/22/1
f 1/3/2 17/43/2 13/32/3
f 1/1/4 3/7/5 4/11/6 22/55/7
f 3/9/2 1/3/2 14/34/8
f 17/43/2 2/6/2 16/39/9
f 2/6/2 3/9/2 19/47/10
f 17/41/11 1/2/4 22/56/7 24/60/12
f 3/8/5 2/4/13 23/58/14 4/10/6
f 2/5/13 17/42/11 24/59/12 23/57/14
f 13/32/3 15/36/15 1/3/2
f 15/36/15 14/34/8 1/3/2
f 16/39/9 18/44/16 17/43/2
f 18/44/16 13/32/3 17/43/2
f 14/34/8 20/49/17 3/9/2
f 20/49/17 19/47/10 3/9/2
f 19/47/10 21/52/18 2/6/2
f 21/52/18 16/39/9 2/6/2
f 16/40/9 5/13/19 6/15/20 18/45/16
f 18/46/16 6/16/20 7/18/21 13/33/3
f 11/28/22 14/35/8 15/37/15 8/20/23
f 8/21/23 15/38/15 13/33/3 7/18/21
f 10/26/24 19/48/10 20/50/17 12/30/25
f 12/31/25 20/51/17 14/35/8 11/28/22
f 5/13/19 16/40/9 21/53/18 9/23/26
f 9/24/26 21/54/18 19/48/10 10/26/24
f 23/57/14 24/59/12 25/61/27
f 4/10/6 23/58/14 25/62/27
f 22/55/7 4/11/6 25/61/27
f 24/60/12 22/56/7 25/62/27
f 35/87/28 37/91/28 36/89/28 33/81/28 32/79/28 31/76/28 30/74/28 34/84/28
f 26/65/29 42/105/30 38/94/31
f 26/63/32 28/69/33 29/73/34 47/118/35
f 28/71/30 26/65/29 39/96/36
f 42/105/30 27/68/29 41/101/37
f 27/68/29 28/71/30 44/109/38
f 42/103/39 26/64/32 47/117/35 49/122/40
f 28/70/33 27/66/41 48/121/42 29/72/34
f 27/67/41 42/104/39 49/123/40 48/120/42
f 38/94/31 40/98/43 26/65/29
f 40/98/43 39/96/36 26/65/29
f 41/101/37 43/106/44 42/105/30
f 43/106/44 38/94/31 42/105/30
f 39/96/36 45/111/45 28/71/30
f 45/111/45 44/109/38 28/71/30
f 44/109/38 46/114/46 27/68/29
f 46/114/46 41/101/37 27/68/29
f 41/102/37 30/75/47 31/77/48 43/107/44
f 43/108/44 31/78/48 32/80/49 38/95/31
f 36/90/50 39/97/36 40/99/43 33/82/51
f 33/83/51 40/100/43 38/95/31 32/80/49
f 35/88/52 44/110/38 45/112/45 37/92/53
f 37/93/53 45/113/45 39/97/36 36/90/50
f 30/75/47 41/102/37 46/115/46 34/85/54
f 34/86/54 46/116/46 44/110/38 35/88/52
f 48/120/42 49/123/40 50/126/55
f 29/72/34 48/121/42 50/125/55
f 47/118/35 29/73/34 50/126/55
f 49/124/40 47/119/35 50/127/55
f 60/152/56 62/155/56 61/153/56 58/148/56 57/146/56 56/142/56 55/140/56 59/150/56
f 51/129/57 67/169/57 63/159/58
f 51/128/59 53/134/60 54/139/61 72/180/62
f 53/135/57 51/129/57 64/160/63
f 67/169/57 52/133/57 66/167/64
f 52/133/57 53/135/57 69/175/65
f 67/171/66 51/130/59 72/181/62 74/186/67
f 53/136/60 52/131/68 73/182/69 54/137/61
f 52/132/68 67/170/66 74/185/67 73/183/69
f 63/159/58 65/165/70 51/129/57
f 65/163/70 64/161/63 51/130/57
f 66/166/64 68/173/71 67/171/57
f 68/173/71 63/158/58 67/171/57
f 64/161/63 70/176/72 53/136/57
f 70/176/72 69/174/65 53/136/57
f 69/175/65 71/179/73 52/133/57
f 71/179/73 66/167/64 52/133/57
f 66/168/64 55/141/74 56/143/75 68/172/71
f 68/173/71 56/144/75 57/145/76 63/158/58
f 61/154/77 64/162/63 65/164/70 58/147/78
f 58/148/78 65/165/70 63/159/58 57/146/76
f 60/151/79 69/174/65 70/176/72 62/156/80
f 62/157/80 70/177/72 64/162/63 61/154/77
f 55/141/74 66/168/64 71/178/73 59/149/81
f 59/150/81 71/179/73 69/175/65 60/152/79
f 73/183/69 74/185/67 75/188/82
f 54/138/61 73/184/69 75/187/82
f 72/180/62 54/139/61 75/188/82
f 74/186/67 72/181/62 75/189/82
f 85/214/83 87/218/83 86/216/83 83/208/83 82/206/83 81/203/83 80/201/83 84/211/83
f 76/192/84 92/232/84 88/221/85
f 76/190/86 78/196/87 79/200/88 97/244/89
f 78/198/84 76/192/84 89/223/90
f 92/232/84 77/195/84 91/228/91
f 77/195/84 78/198/84 94/236/92
f 92/230/93 76/191/86 97/245/89 99/249/94
f 78/197/87 77/193/95 98/247/96 79/199/88
f 77/194/95 92/231/93 99/248/94 98/246/96
f 88/221/85 90/225/97 76/192/84
f 90/225/97 89/223/90 76/192/84
f 91/228/91 93/233/98 92/232/84
f 93/233/98 88/221/85 92/232/84
f 89/223/90 95/238/99 78/198/84
f 95/238/99 94/236/92 78/198/84
f 94/236/92 96/241/100 77/195/84
f 96/241/100 91/228/91 77/195/84
f 91/229/91 80/202/101 81/204/102 93/234/98
f 93/235/98 81/205/102 82/207/103 88/222/85
f 86/217/104 89/224/90 90/226/97 83/209/105
f 83/210/105 90/227/97 88/222/85 82/207/103
f 85/215/106 94/237/92 95/239/99 87/219/107
f 87/220/107 95/240/99 89/224/90 86/217/104
f 80/202/101 91/229/91 96/242/100 84/212/108
f 84/213/108 96/243/100 94/237/92 85/215/106
f 98/246/96 99/248/94 100/250/109
f 79/199/88 98/247/96 100/251/109
f 97/244/89 79/200/88 100/250/109
f 99/249/94 97/245/89 100/251/109
f 110/276/110 112/280/110 111/278/110 108/270/110 107/268/110 106/265/110 105/263/110 109/273/110
f 101/254/111 117/294/111 113/283/112
f 101/252/113 103/258/114 104/262/115 122/306/116
f 103/260/111 101/254/111 114/285/117
f 117/294/111 102/257/111 116/290/118
f 102/257/111 103/260/111 119/298/119
f 117/292/120 101/253/113 122/307/116 124/311/121
f 103/259/114 102/255/122 123/309/123 104/261/115
f 102/256/122 117/293/120 124/310/121 123/308/123
f 113/283/112 115/287/124 101/254/111
f 115/287/124 114/285/117 101/254/111
f 116/290/118 118/295/125 117/294/111
f 118/295/125 113/283/112 117/294/111
f 114/285/117 120/300/126 103/260/111
f 120/300/126 119/298/119 103/260/111
f 119/298/119 121/303/127 102/257/111
f 121/303/127 116/290/118 102/257/111
f 116/291/118 105/264/128 106/266/129 118/296/125
f 118/297/125 106/267/129 107/269/130 113/284/112
f 111/279/131 114/286/117 115/288/124 108/271/132
f 108/272/132 115/289/124 113/284/112 107/269/130
f 110/277/133 119/299/119 120/301/126 112/281/134
f 112/282/134 120/302/126 114/286/117 111/279/131
f 105/264/128 116/291/118 121/304/127 109/274/135
f 109/275/135 121/305/127 119/299/119 110/277/133
f 123/308/123 124/310/121 125/312/136
f 104/261/115 123/309/123 125/313/136
f 122/306/116 104/262/115 125/312/136
f 124/311/121 122/307/116 125/313/136
f 135/338/137 137/342/137 136/340/137 133/332/137 132/330/137 131/327/137 130/325/137 134/335/137
f 126/316/138 142/356/138 138/345/139
f 126/314/140 128/320/141 129/324/142 147/368/143
f 128/322/138 126/316/138 139/347/144
f 142/356/138 127/319/138 141/352/145
f 127/319/138 128/322/138 144/360/146
f 142/354/147 126/315/140 147/369/143 149/373/148
f 128/321/141 127/317/149 148/371/150 129/323/142
f 127/318/149 142/355/147 149/372/148 148/370/150
f 138/345/139 140/349/151 126/316/138
f 140/349/151 139/347/144 126/316/138
f 141/352/145 143/357/152 142/356/138
f 143/357/152 138/345/139 142/356/138
f 139/347/144 145/362/153 128/322/138
f 145/362/153 144/360/146 128/322/138
f 144/360/146 146/365/154 127/319/138
f 146/365/154 141/352/145 127/319/138
f 141/353/145 130/326/155 131/328/156 143/358/152
f 143/359/152 131/329/156 132/331/157 138/346/139
f 136/341/158 139/348/144 140/350/151 133/333/159
f 133/334/159 140/351/151 138/346/139 132/331/157
f 135/339/160 144/361/146 145/363/153 137/343/161
f 137/344/161 145/364/153 139/348/144 136/341/158
f 130/326/155 141/353/145 146/366/154 134/336/162
f 134/337/162 146/367/154 144/361/146 135/339/160
f 148/370/150 149/372/148 150/374/163
f 129/323/142 148/371/150 150/375/163
f 147/368/143 129/324/142 150/374/163
f 149/373/148 147/369/143 150/375/163
