# Blender v3.0.1 OBJ File: 'bookcase.blend'
# www.blender.org
mtllib bookcase.mtl
o bookcase_Cube.003
v 0.000000 0.019631 0.315657
v 0.000000 2.055127 0.315657
v 0.000000 0.019631 -0.315657
v 0.000000 2.055127 -0.315657
v 1.299570 0.019631 0.315657
v 1.299570 2.055127 0.315657
v 1.299570 0.019631 -0.315657
v 1.299570 2.055127 -0.315657
v 1.204819 0.019631 -0.315657
v 1.204819 2.055127 -0.315657
v 1.204819 0.019631 0.315657
v 1.204819 2.055127 0.315657
v 0.000000 1.981461 0.245657
v 0.000000 1.981461 -0.245657
v 1.299570 1.981461 -0.315657
v 1.299570 1.981461 0.315657
v 1.204819 1.981461 0.245657
v 1.204819 1.981461 -0.245657
v 0.000000 0.365856 -0.245657
v 1.299570 0.365856 -0.315657
v 1.299570 0.365856 0.315657
v 1.204819 0.365856 0.245657
v 1.204819 0.365856 -0.245657
v 0.000000 0.365856 0.245657
v 0.000000 1.173659 0.245657
v 0.000000 1.173659 -0.245657
v 1.299570 1.173659 -0.315657
v 1.299570 1.173659 0.315657
v 1.204819 1.173659 0.245657
v 1.204819 1.173659 -0.245657
v 0.000000 1.577560 0.245657
v 0.000000 1.577560 -0.245657
v 1.299570 1.577560 -0.315657
v 1.299570 1.577560 0.315657
v 1.204819 1.577560 0.245657
v 1.204819 1.577560 -0.245657
v 0.000000 0.769757 -0.245657
v 1.299570 0.769757 -0.315657
v 1.299570 0.769757 0.315657
v 1.204819 0.769757 0.245657
v 1.204819 0.769757 -0.245657
v 0.000000 0.769757 0.245657
v -1.299570 0.019631 0.315657
v -1.299570 2.055127 0.315657
v -1.299570 0.019631 -0.315657
v -1.299570 2.055127 -0.315657
v -1.204819 0.019631 -0.315657
v -1.204819 2.055127 -0.315657
v -1.204819 0.019631 0.315657
v -1.204819 2.055127 0.315657
v -1.299570 1.981461 -0.315657
v -1.299570 1.981461 0.315657
v -1.204819 1.981461 0.245657
v -1.204819 1.981461 -0.245657
v -1.299570 0.365856 -0.315657
v -1.299570 0.365856 0.315657
v -1.204819 0.365856 0.245657
v -1.204819 0.365856 -0.245657
v -1.299570 1.173659 -0.315657
v -1.299570 1.173659 0.315657
v -1.204819 1.173659 0.245657
v -1.204819 1.173659 -0.245657
v -1.299570 1.577560 -0.315657
v -1.299570 1.577560 0.315657
v -1.204819 1.577560 0.245657
v -1.204819 1.577560 -0.245657
v -1.299570 0.769757 -0.315657
v -1.299570 0.769757 0.315657
v -1.204819 0.769757 0.245657
v -1.204819 0.769757 -0.245657
v 0.000000 1.981461 0.325657
v 0.000000 2.055127 0.325657
v 1.299570 0.365856 0.325657
v 1.299570 0.019631 0.325657
v 1.204819 0.019631 0.325657
v 1.204819 2.055127 0.325657
v 0.000000 0.019631 0.325657
v 1.299570 2.055127 0.325657
v 1.204819 0.365856 0.325657
v 1.299570 1.981461 0.325657
v 1.204819 1.981461 0.325657
v 1.299570 0.769757 0.325657
v 1.204819 0.769757 0.325657
v 0.000000 0.365856 0.325657
v 1.299570 1.577560 0.325657
v 1.299570 1.173659 0.325657
v 1.204819 1.577560 0.325657
v 1.204819 1.173659 0.325657
v -1.299570 0.365856 0.325657
v -1.299570 0.019631 0.325657
v -1.204819 0.019631 0.325657
v -1.204819 2.055127 0.325657
v -1.299570 2.055127 0.325657
v -1.204819 0.365856 0.325657
v -1.299570 1.981461 0.325657
v -1.204819 1.981461 0.325657
v -1.299570 0.769757 0.325657
v -1.204819 0.769757 0.325657
v -1.299570 1.577560 0.325657
v -1.299570 1.173659 0.325657
v -1.204819 1.577560 0.325657
v -1.204819 1.173659 0.325657
v 0.000000 0.365856 -0.325657
v 0.000000 0.019631 -0.325657
v 1.204819 0.019631 -0.325657
v 1.204819 2.055127 -0.325657
v 1.299570 2.055127 -0.325657
v 1.299570 0.365856 -0.325657
v 1.299570 0.019631 -0.325657
v 0.000000 2.055127 -0.325657
v 1.204819 0.365856 -0.325657
v 0.000000 1.981461 -0.325657
v 1.299570 1.981461 -0.325657
v 1.204819 1.981461 -0.325657
v 1.299570 0.769757 -0.325657
v 1.204819 0.769757 -0.325657
v 1.299570 1.577560 -0.325657
v 1.299570 1.173659 -0.325657
v 1.204819 1.577560 -0.325657
v 1.204819 1.173659 -0.325657
v -1.204819 0.019631 -0.325657
v -1.204819 2.055127 -0.325657
v -1.299570 2.055127 -0.325657
v -1.299570 0.365856 -0.325657
v -1.299570 0.019631 -0.325657
v -1.204819 0.365856 -0.325657
v -1.299570 1.981461 -0.325657
v -1.204819 1.981461 -0.325657
v -1.299570 0.769757 -0.325657
v -1.204819 0.769757 -0.325657
v -1.299570 1.577560 -0.325657
v -1.299570 1.173659 -0.325657
v -1.204819 1.577560 -0.325657
v -1.204819 1.173659 -0.325657
vt 0.167619 0.216800
vt 0.000000 0.216800
vt 0.000000 0.183600
vt 0.167619 0.183600
vt 0.395248 0.382328
vt 0.395234 0.396499
vt 0.273787 0.396377
vt 0.273802 0.382206
vt 0.732650 0.010468
vt 0.750878 0.010473
vt 0.750878 0.010473
vt 0.732650 0.010468
vt 0.732688 -0.110979
vt 0.750915 -0.110974
vt 0.331828 0.214850
vt 0.515544 0.215082
vt 0.515422 0.336529
vt 0.331706 0.336296
vt 0.313600 0.214831
vt 0.313478 0.336278
vt 0.500915 -0.111050
vt 0.500878 0.010397
vt 0.273787 0.396377
vt 0.273802 0.382206
vt 0.710247 0.215333
vt 0.692020 0.215315
vt 0.692020 0.215315
vt 0.710247 0.215333
vt 0.498979 0.720431
vt 0.498928 1.000336
vt 0.001549 1.000184
vt 0.001600 0.720279
vt 0.274181 0.004806
vt 0.274114 0.071410
vt 0.274114 0.071410
vt 0.274181 0.004806
vt 0.998404 0.722768
vt 0.998353 1.001522
vt 0.499784 1.001369
vt 0.499835 0.722616
vt 0.395326 0.304629
vt 0.273880 0.304507
vt 0.395248 0.382328
vt 0.395234 0.396499
vt -0.000000 0.216800
vt 0.167619 0.216800
vt 0.167619 0.250000
vt 0.000000 0.250000
vt 0.395627 0.004928
vt 0.395561 0.071532
vt 0.167619 0.117200
vt 0.335238 0.117200
vt 0.335238 0.150400
vt 0.167619 0.150400
vt -0.000000 0.117200
vt 0.000000 0.150400
vt 0.269143 -0.111121
vt 0.269143 -0.111121
vt 0.500915 -0.111050
vt 0.335238 0.216800
vt 0.502858 0.216800
vt 0.502858 0.250000
vt 0.335238 0.250000
vt 0.395483 0.149231
vt 0.395405 0.226930
vt 0.273958 0.226808
vt 0.274036 0.149109
vt 1.242939 0.722661
vt 1.242887 1.000193
vt 0.738712 1.000039
vt 0.738764 0.722506
vt 0.273958 0.226808
vt 0.274036 0.149109
vt 0.274036 0.149109
vt 0.273958 0.226808
vt 0.122382 0.725033
vt 0.122331 0.997723
vt -0.376647 0.997570
vt -0.376596 0.724881
vt 0.152589 0.148987
vt 0.152511 0.226686
vt 0.152511 0.226686
vt 0.152589 0.148987
vt 1.002260 0.432311
vt 1.002209 0.722681
vt 0.501358 0.722527
vt 0.501410 0.432157
vt 0.274114 0.071410
vt 0.274114 0.071410
vt 0.499979 0.431974
vt 0.499928 0.720868
vt 0.003481 0.720716
vt 0.003532 0.431822
vt 0.003964 0.423413
vt 0.003913 0.719370
vt -0.495107 0.719218
vt -0.495055 0.423261
vt 0.167619 0.183600
vt 0.000000 0.183600
vt 0.000000 0.150400
vt 0.167619 0.150400
vt 1.272168 0.425676
vt 1.272116 0.720807
vt 0.770937 0.720654
vt 0.770988 0.425523
vt 0.152667 0.071288
vt 0.152667 0.071288
vt 0.395627 0.004928
vt 0.395561 0.071532
vt 0.152355 0.382084
vt 0.273802 0.382206
vt 0.273787 0.396377
vt 0.152341 0.396255
vt 0.274036 0.149109
vt 0.269105 0.010326
vt 0.250878 0.010320
vt 0.250915 -0.111127
vt 0.691898 0.336762
vt 0.710125 0.336780
vt 0.502858 0.183600
vt 0.335238 0.183600
vt 0.335238 0.150400
vt 0.502858 0.150400
vt 0.395483 0.149231
vt 0.996357 0.720583
vt 0.996306 1.000488
vt 0.710125 0.336780
vt 0.691898 0.336762
vt 0.001267 0.722463
vt 0.001215 1.001217
vt 0.152433 0.304385
vt 0.273880 0.304507
vt 0.313600 0.214831
vt 0.331828 0.214850
vt 0.502858 0.216800
vt 0.335238 0.216800
vt 0.335238 0.183600
vt 0.502858 0.183600
vt 0.152734 0.004684
vt 0.274181 0.004806
vt 0.273880 0.304507
vt 0.273958 0.226808
vt 0.500878 0.010397
vt 0.269105 0.010326
vt 0.670477 0.216800
vt 0.670477 0.250000
vt 0.732688 -0.110979
vt 0.234588 0.722352
vt 0.234537 0.999885
vt 0.502858 0.117200
vt 0.502858 0.150400
vt 0.621361 0.725186
vt 0.621309 0.997876
vt 0.395405 0.226930
vt 0.395326 0.304629
vt 0.000559 0.432004
vt 0.000507 0.722374
vt 0.670477 0.183600
vt 0.670477 0.150400
vt 0.996426 0.432126
vt 0.996375 0.721020
vt 0.502983 0.423566
vt 0.502932 0.719523
vt 0.000000 0.283200
vt 0.500000 0.283200
vt 0.500000 0.316400
vt 0.000000 0.316400
vt 0.269809 0.425370
vt 0.269757 0.720500
vt 0.515544 0.215082
vt 0.741173 0.382775
vt 0.741169 0.396946
vt 0.509396 0.396876
vt 0.509401 0.382705
vt 0.759401 0.382781
vt 0.759396 0.396952
vt 0.287067 0.089271
vt 0.082904 0.089208
vt 0.082919 0.041314
vt 0.287082 0.041376
vt 0.741289 0.005376
vt 0.741268 0.071979
vt 0.509496 0.071908
vt 0.509516 0.005305
vt 0.759516 0.005381
vt 0.759496 0.071985
vt 0.695393 0.089396
vt 0.491230 0.089333
vt 0.491245 0.041439
vt 0.695408 0.041501
vt 0.899557 0.089458
vt 0.899571 0.041564
vt 0.277628 0.382634
vt 0.277624 0.396805
vt 0.259401 0.382628
vt 0.259396 0.396799
vt 0.688555 0.086636
vt 0.688822 0.039018
vt 0.891804 0.040160
vt 0.891535 0.087778
vt 0.277744 0.005234
vt 0.277723 0.071838
vt 0.259516 0.005228
vt 0.259496 0.071832
vt 0.282592 0.084351
vt 0.282860 0.036733
vt 0.485841 0.037876
vt 0.485573 0.085493
vt 0.079611 0.083209
vt 0.079879 0.035591
vt 0.515422 0.336529
vt 0.331706 0.336296
vt 0.273802 0.382206
vt 0.273787 0.396377
vt 0.273880 0.304507
vt 0.500000 0.250000
vt 1.000000 0.250000
vt 1.000000 0.283200
vt 0.500000 0.283200
vt 0.000000 0.250000
vt 0.000000 0.283200
vt 0.670477 0.117200
vt 0.670477 0.150400
vt 0.274181 0.004806
vt 0.250878 0.010320
vt 1.000000 0.283200
vt 1.000000 0.316400
vt 0.313478 0.336278
vt 0.268990 0.387726
vt 0.268986 0.401897
vt 0.250758 0.401891
vt 0.250762 0.387720
vt 0.500762 0.387797
vt 0.500758 0.401968
vt 0.663588 0.034881
vt 0.853263 0.034939
vt 0.853249 0.079435
vt 0.663575 0.079377
vt 0.269105 0.010326
vt 0.269085 0.076929
vt 0.250858 0.076924
vt 0.250878 0.010320
vt 0.500878 0.010397
vt 0.500858 0.077000
vt 0.284239 0.034765
vt 0.473914 0.034823
vt 0.473900 0.079319
vt 0.284226 0.079261
vt 0.094565 0.034707
vt 0.094551 0.079203
vt 0.732535 0.387867
vt 0.750762 0.387873
vt 0.750758 0.402044
vt 0.732531 0.402038
vt 0.278434 0.037441
vt 0.278419 0.085160
vt 0.075006 0.085098
vt 0.075021 0.037379
vt 0.732650 0.010468
vt 0.750878 0.010473
vt 0.750857 0.077077
vt 0.732630 0.077071
vt 0.685260 0.037566
vt 0.685245 0.085285
vt 0.481832 0.085222
vt 0.481847 0.037504
vt 0.888673 0.037628
vt 0.888658 0.085347
vt 0.152734 0.004684
vt 0.152341 0.396255
vt 0.152355 0.382084
vt 0.152433 0.304385
vt 0.750915 -0.110974
vt 1.000000 0.349600
vt 0.500000 0.349600
vt 0.500000 0.316400
vt 1.000000 0.316400
vt 0.670477 0.216800
vt 0.670477 0.183600
vt 1.000000 0.382800
vt 0.500000 0.382800
vt 0.500000 0.349600
vt 1.000000 0.349600
vt 0.000000 0.382800
vt 0.000000 0.349600
vt 0.000000 0.349600
vt 0.000000 0.316400
vt 0.250915 -0.111127
vn 1.0000 0.0000 0.0000
vn 0.0000 -1.0000 0.0000
vn 0.0000 1.0000 0.0000
vn 0.0000 0.0000 -1.0000
vn 0.0000 0.0000 1.0000
vn -1.0000 0.0000 0.0000
usemtl bookcase_material
s off
f 70/1/1 58/2/1 126/3/1 130/4/1
f 15/5/1 8/6/1 6/7/1 16/8/1
f 11/9/2 5/10/2 74/11/2 75/12/2
f 9/13/2 7/14/2 5/10/2 11/9/2
f 10/15/3 4/16/3 2/17/3 12/18/3
f 8/19/3 10/15/3 12/18/3 6/20/3
f 3/21/2 9/13/2 11/9/2 1/22/2
f 16/8/1 6/7/1 78/23/1 80/24/1
f 46/25/3 48/26/3 122/27/3 123/28/3
f 32/29/4 14/30/4 18/31/4 36/32/4
f 5/33/1 21/34/1 73/35/1 74/36/1
f 35/37/5 17/38/5 13/39/5 31/40/5
f 33/41/1 15/5/1 16/8/1 34/42/1
f 8/6/1 15/5/1 113/43/1 107/44/1
f 23/45/6 41/46/6 116/47/6 111/48/6
f 7/49/1 20/50/1 21/34/1 5/33/1
f 69/51/1 61/52/1 102/53/1 98/54/1
f 57/55/1 69/51/1 98/54/1 94/56/1
f 3/21/2 47/57/2 121/58/2 104/59/2
f 30/60/6 36/61/6 119/62/6 120/63/6
f 38/64/1 27/65/1 28/66/1 39/67/1
f 40/68/5 29/69/5 25/70/5 42/71/5
f 60/72/6 68/73/6 97/74/6 100/75/6
f 37/76/4 26/77/4 30/78/4 41/79/4
f 67/80/6 59/81/6 132/82/6 129/83/6
f 27/65/1 33/41/1 34/42/1 28/66/1
f 29/84/5 35/85/5 31/86/5 25/87/5
f 68/73/6 56/88/6 89/89/6 97/74/6
f 26/90/4 32/91/4 36/92/4 30/93/4
f 19/94/4 37/95/4 41/96/4 23/97/4
f 40/98/6 22/99/6 79/100/6 83/101/6
f 22/102/5 40/103/5 42/104/5 24/105/5
f 20/50/1 38/64/1 39/67/1 21/34/1
f 55/106/6 67/80/6 129/83/6 124/107/6
f 20/50/1 7/49/1 109/108/1 108/109/1
f 51/110/6 52/111/6 44/112/6 46/113/6
f 21/34/1 39/67/1 82/114/1 73/35/1
f 47/57/2 49/115/2 43/116/2 45/117/2
f 48/26/3 50/118/3 2/17/3 4/16/3
f 46/25/3 44/119/3 50/118/3 48/26/3
f 3/21/2 1/22/2 49/115/2 47/57/2
f 35/120/6 29/121/6 88/122/6 87/123/6
f 38/64/1 20/50/1 108/109/1 115/124/1
f 32/29/4 66/125/4 54/126/4 14/30/4
f 50/118/3 44/119/3 93/127/3 92/128/3
f 65/129/5 31/40/5 13/39/5 53/130/5
f 63/131/6 64/132/6 52/111/6 51/110/6
f 10/15/3 8/19/3 107/133/3 106/134/3
f 66/135/1 62/136/1 134/137/1 133/138/1
f 45/139/6 43/140/6 56/88/6 55/106/6
f 28/66/1 34/42/1 85/141/1 86/142/1
f 49/115/2 1/22/2 77/143/2 91/144/2
f 36/61/6 18/145/6 114/146/6 119/62/6
f 9/13/2 3/21/2 104/59/2 105/147/2
f 67/80/6 68/73/6 60/72/6 59/81/6
f 69/148/5 42/71/5 25/70/5 61/149/5
f 61/52/1 65/150/1 101/151/1 102/53/1
f 37/76/4 70/152/4 62/153/4 26/77/4
f 33/41/1 27/65/1 118/154/1 117/155/1
f 59/81/6 60/72/6 64/132/6 63/131/6
f 61/156/5 25/87/5 31/86/5 65/157/5
f 17/158/6 35/120/6 87/123/6 81/159/6
f 26/90/4 62/160/4 66/161/4 32/91/4
f 19/94/4 58/162/4 70/163/4 37/95/4
f 53/164/2 13/165/2 71/166/2 96/167/2
f 57/168/5 24/105/5 42/104/5 69/169/5
f 55/106/6 56/88/6 68/73/6 67/80/6
f 48/26/3 4/16/3 110/170/3 122/27/3
f 81/171/5 76/172/5 72/173/5 71/174/5
f 80/175/5 78/176/5 76/172/5 81/171/5
f 85/177/5 80/178/5 81/179/5 87/180/5
f 75/181/5 79/182/5 84/183/5 77/184/5
f 74/185/5 73/186/5 79/182/5 75/181/5
f 82/187/5 86/188/5 88/189/5 83/190/5
f 86/188/5 85/177/5 87/180/5 88/189/5
f 73/191/5 82/187/5 83/190/5 79/192/5
f 96/193/5 71/174/5 72/173/5 92/194/5
f 95/195/5 96/193/5 92/194/5 93/196/5
f 99/197/5 101/198/5 96/199/5 95/200/5
f 91/201/5 77/184/5 84/183/5 94/202/5
f 90/203/5 91/201/5 94/202/5 89/204/5
f 97/205/5 98/206/5 102/207/5 100/208/5
f 100/208/5 102/207/5 101/198/5 99/197/5
f 89/209/5 94/210/5 98/206/5 97/205/5
f 12/18/3 2/17/3 72/211/3 76/212/3
f 44/112/6 52/111/6 95/213/6 93/214/6
f 52/111/6 64/132/6 99/215/6 95/213/6
f 24/216/3 57/217/3 94/218/3 84/219/3
f 22/220/3 24/216/3 84/219/3 79/221/3
f 39/67/1 28/66/1 86/142/1 82/114/1
f 65/150/1 53/222/1 96/223/1 101/151/1
f 56/88/6 43/140/6 90/224/6 89/89/6
f 29/121/6 40/98/6 83/101/6 88/122/6
f 43/116/2 49/115/2 91/144/2 90/225/2
f 1/22/2 11/9/2 75/12/2 77/143/2
f 13/165/2 17/226/2 81/227/2 71/166/2
f 2/17/3 50/118/3 92/128/3 72/211/3
f 6/20/3 12/18/3 76/212/3 78/228/3
f 34/42/1 16/8/1 80/24/1 85/141/1
f 64/132/6 60/72/6 100/75/6 99/215/6
f 114/229/4 106/230/4 107/231/4 113/232/4
f 112/233/4 110/234/4 106/230/4 114/229/4
f 119/235/4 114/236/4 113/237/4 117/238/4
f 105/239/4 111/240/4 108/241/4 109/242/4
f 104/243/4 103/244/4 111/240/4 105/239/4
f 116/245/4 120/246/4 118/247/4 115/248/4
f 120/246/4 119/235/4 117/238/4 118/247/4
f 111/249/4 116/245/4 115/248/4 108/250/4
f 128/251/4 127/252/4 123/253/4 122/254/4
f 112/233/4 128/251/4 122/254/4 110/234/4
f 133/255/4 131/256/4 127/257/4 128/258/4
f 121/259/4 125/260/4 124/261/4 126/262/4
f 104/243/4 121/259/4 126/262/4 103/244/4
f 130/263/4 129/264/4 132/265/4 134/266/4
f 134/266/4 132/265/4 131/256/4 133/255/4
f 126/267/4 124/268/4 129/264/4 130/263/4
f 62/136/1 70/1/1 130/4/1 134/137/1
f 45/139/6 55/106/6 124/107/6 125/269/6
f 51/110/6 46/113/6 123/270/6 127/271/6
f 63/131/6 51/110/6 127/271/6 131/272/6
f 27/65/1 38/64/1 115/124/1 118/154/1
f 7/14/2 9/13/2 105/147/2 109/273/2
f 18/274/2 14/275/2 112/276/2 114/277/2
f 4/16/3 10/15/3 106/134/3 110/170/3
f 54/278/1 66/135/1 133/138/1 128/279/1
f 58/280/3 19/281/3 103/282/3 126/283/3
f 19/281/3 23/284/3 111/285/3 103/282/3
f 41/46/6 30/60/6 120/63/6 116/47/6
f 14/275/2 54/286/2 128/287/2 112/276/2
f 15/5/1 33/41/1 117/155/1 113/43/1
f 59/81/6 63/131/6 131/272/6 132/82/6
f 47/57/2 45/117/2 125/288/2 121/58/2
