# Blender v3.0.1 OBJ File: 'chair.blend'
# www.blender.org
mtllib chair.mtl
o chair_Plane.003
v 0.214254 0.002814 0.226654
v 0.214254 0.002814 -0.158752
v 0.214254 0.479421 0.226654
v 0.214254 0.479421 -0.158752
v 0.208770 0.479421 0.226654
v 0.208770 0.002814 0.226654
v 0.208770 0.002814 -0.158752
v 0.208770 0.479421 -0.158752
v -0.223754 0.447357 0.244900
v -0.223754 0.487794 0.244900
v -0.223754 0.447357 -0.173777
v -0.223754 0.487794 -0.173777
v 0.223754 0.447357 0.244900
v 0.223754 0.487794 0.244900
v 0.223754 0.447357 -0.173777
v 0.223754 0.487794 -0.173777
v -0.287330 0.449325 -0.169286
v 0.287330 0.449325 -0.169286
v -0.287330 1.113563 -0.169285
v 0.287330 1.113563 -0.169285
v -0.287330 1.113563 -0.174769
v -0.287330 0.449325 -0.174769
v 0.287330 0.449325 -0.174769
v 0.287330 1.113563 -0.174769
v -0.208770 0.002814 0.226654
v -0.208770 0.002814 -0.158752
v -0.208770 0.479421 0.226654
v -0.208770 0.479421 -0.158752
v -0.214254 0.479421 0.226654
v -0.214254 0.002814 0.226654
v -0.214254 0.002814 -0.158752
v -0.214254 0.479421 -0.158752
v -0.210626 0.002814 -0.154348
v 0.210626 0.002814 -0.154348
v -0.210626 0.479421 -0.154348
v 0.210626 0.479421 -0.154348
v -0.210626 0.479421 -0.159832
v -0.210626 0.002814 -0.159832
v 0.210626 0.002814 -0.159832
v 0.210626 0.479421 -0.159832
v -0.210626 0.002814 0.228396
v 0.210626 0.002814 0.228396
v -0.210626 0.479421 0.228396
v 0.210626 0.479421 0.228396
v -0.210626 0.479421 0.222912
v -0.210626 0.002814 0.222912
v 0.210626 0.002814 0.222912
v 0.210626 0.479421 0.222912
vt 0.475065 0.085916
vt 0.475065 0.403802
vt 0.043589 0.403801
vt 0.043589 0.085916
vt 0.043652 0.085647
vt 0.475546 0.085648
vt 0.475546 0.403724
vt 0.043652 0.403724
vt 0.850459 0.542683
vt 0.850459 0.617208
vt 0.849601 0.617208
vt 0.849601 0.542683
vt 0.848744 0.542683
vt 0.848744 0.617208
vt 0.847886 0.617208
vt 0.847886 0.542683
vt 0.849601 0.743342
vt 0.849601 0.683078
vt 0.850459 0.683078
vt 0.850459 0.743342
vt 0.851316 0.734687
vt 0.851316 0.674422
vt 0.852174 0.674422
vt 0.852174 0.734687
vt 0.265314 0.746864
vt 0.244640 0.746864
vt 0.244640 0.532814
vt 0.265314 0.532814
vt 0.265557 0.749301
vt 0.244883 0.749301
vt 0.244883 0.520510
vt 0.265557 0.520510
vt 0.248861 0.529074
vt 0.269535 0.529074
vt 0.269535 0.743124
vt 0.248861 0.743124
vt 0.264570 0.751762
vt 0.243896 0.751762
vt 0.243896 0.522971
vt 0.264570 0.522971
vt 0.276093 0.760762
vt 0.276093 0.809265
vt 0.230714 0.809265
vt 0.230714 0.760762
vt 0.504473 0.066484
vt 0.995337 0.066484
vt 0.995336 0.499544
vt 0.504473 0.499544
vt 0.498649 0.427061
vt 0.498649 0.992240
vt 0.011493 0.992240
vt 0.011493 0.427061
vt 0.011570 0.427734
vt 0.498726 0.427734
vt 0.498726 0.993890
vt 0.011570 0.993890
vt 0.847029 0.646547
vt 0.847029 0.542683
vt 0.847886 0.542683
vt 0.847886 0.646547
vt 0.847029 0.542683
vt 0.847029 0.646547
vt 0.846171 0.646547
vt 0.846171 0.542683
vt 0.841651 0.637489
vt 0.841651 0.547632
vt 0.842508 0.547632
vt 0.842508 0.637489
vt 0.843366 0.547632
vt 0.843366 0.637489
vt 0.842508 0.637489
vt 0.842508 0.547632
vt 0.474194 0.086423
vt 0.474194 0.401767
vt 0.043849 0.401767
vt 0.043849 0.086423
vt 0.044051 0.086561
vt 0.475481 0.086561
vt 0.475480 0.402205
vt 0.044051 0.402205
vt 0.849601 0.617208
vt 0.849601 0.691733
vt 0.848744 0.691733
vt 0.848744 0.617208
vt 0.849601 0.542683
vt 0.849601 0.617208
vt 0.848744 0.617208
vt 0.848744 0.542683
vt 0.852174 0.608553
vt 0.852174 0.668817
vt 0.851316 0.668817
vt 0.851316 0.608553
vt 0.851316 0.602947
vt 0.851316 0.542683
vt 0.852174 0.542683
vt 0.852174 0.602947
vt 0.473774 0.086125
vt 0.473774 0.398001
vt 0.045255 0.401876
vt 0.045255 0.090001
vt 0.043532 0.086177
vt 0.474832 0.086177
vt 0.474832 0.403667
vt 0.043532 0.403667
vt 0.843366 0.622157
vt 0.843366 0.547632
vt 0.844223 0.547632
vt 0.844223 0.622157
vt 0.848744 0.617208
vt 0.848744 0.691733
vt 0.847886 0.691733
vt 0.847886 0.617208
vt 0.850459 0.608553
vt 0.850459 0.542683
vt 0.851316 0.542683
vt 0.851316 0.608553
vt 0.850459 0.617208
vt 0.850459 0.683078
vt 0.849601 0.683078
vt 0.849601 0.617208
vt 0.475220 0.086136
vt 0.475220 0.402556
vt 0.044033 0.402556
vt 0.044033 0.086136
vt 0.043566 0.086689
vt 0.474613 0.086689
vt 0.474613 0.403597
vt 0.043566 0.403597
vt 0.844223 0.622157
vt 0.844223 0.547632
vt 0.845081 0.547632
vt 0.845081 0.622157
vt 0.845938 0.547632
vt 0.845938 0.622157
vt 0.845081 0.622157
vt 0.845081 0.547632
vt 0.850459 0.674422
vt 0.850459 0.608553
vt 0.851316 0.608553
vt 0.851316 0.674422
vt 0.851316 0.674422
vt 0.851316 0.740292
vt 0.850459 0.740292
vt 0.850459 0.674422
vn -1.0000 0.0000 0.0000
vn 1.0000 -0.0000 -0.0000
vn 0.0000 0.0000 1.0000
vn 0.0000 0.0000 -1.0000
vn 0.0000 -1.0000 0.0000
vn 0.0000 1.0000 -0.0000
usemtl chair_material
s off
f 1/1/1 3/2/1 4/3/1 2/4/1
f 6/5/2 7/6/2 8/7/2 5/8/2
f 2/9/3 4/10/3 8/11/3 7/12/3
f 3/13/4 1/14/4 6/15/4 5/16/4
f 4/17/5 3/18/5 5/19/5 8/20/5
f 1/21/6 2/22/6 7/23/6 6/24/6
f 9/25/1 10/26/1 12/27/1 11/28/1
f 11/29/4 12/30/4 16/31/4 15/32/4
f 15/33/2 16/34/2 14/35/2 13/36/2
f 13/37/3 14/38/3 10/39/3 9/40/3
f 11/41/5 15/42/5 13/43/5 9/44/5
f 16/45/6 12/46/6 10/47/6 14/48/6
f 17/49/4 19/50/4 20/51/4 18/52/4
f 22/53/3 23/54/3 24/55/3 21/56/3
f 18/57/1 20/58/1 24/59/1 23/60/1
f 19/61/2 17/62/2 22/63/2 21/64/2
f 20/65/5 19/66/5 21/67/5 24/68/5
f 17/69/6 18/70/6 23/71/6 22/72/6
f 25/73/1 27/74/1 28/75/1 26/76/1
f 30/77/2 31/78/2 32/79/2 29/80/2
f 26/81/3 28/82/3 32/83/3 31/84/3
f 27/85/4 25/86/4 30/87/4 29/88/4
f 28/89/5 27/90/5 29/91/5 32/92/5
f 25/93/6 26/94/6 31/95/6 30/96/6
f 33/97/4 35/98/4 36/99/4 34/100/4
f 38/101/3 39/102/3 40/103/3 37/104/3
f 34/105/1 36/106/1 40/107/1 39/108/1
f 35/109/2 33/110/2 38/111/2 37/112/2
f 36/113/5 35/114/5 37/115/5 40/116/5
f 33/117/6 34/118/6 39/119/6 38/120/6
f 41/121/4 43/122/4 44/123/4 42/124/4
f 46/125/3 47/126/3 48/127/3 45/128/3
f 42/129/1 44/130/1 48/131/1 47/132/1
f 43/133/2 41/134/2 46/135/2 45/136/2
f 44/137/5 43/138/5 45/139/5 48/140/5
f 41/141/6 42/142/6 47/143/6 46/144/6
