# Blender v3.0.1 OBJ File: 'master_bed.blend'
# www.blender.org
mtllib master_bed.mtl
o master_bed_Cube.001
v -0.902903 0.457967 0.849758
v -0.902903 0.457968 -1.439947
v -0.950789 0.274881 0.910475
v -0.950789 0.274881 -1.500664
v 0.902903 0.457967 0.849758
v 0.902903 0.457968 -1.439947
v 0.950789 0.274881 0.910475
v 0.950789 0.274881 -1.500664
v -0.884911 1.642451 0.913399
v 0.884911 1.642451 0.913399
v -0.884911 0.189909 0.913399
v 0.884911 0.189909 0.913399
v -0.000000 1.642451 0.913399
v -0.000000 0.189909 0.913399
v 0.259424 1.642451 0.913399
v 0.259424 0.189909 0.913399
v -0.259424 0.189909 0.913399
v -0.259424 1.642451 0.913399
v 0.884911 -0.002381 0.936105
v 0.884911 2.272968 0.936105
v 0.884911 -0.002381 0.865027
v 0.884911 2.272968 0.865027
v 0.959283 -0.002381 0.936105
v 0.959283 2.272968 0.936105
v 0.959283 -0.002381 0.865027
v 0.959283 2.272968 0.865027
v -0.884911 -0.002381 0.883226
v -0.884911 2.272968 0.883226
v -0.884911 -0.002381 0.954304
v -0.884911 2.272968 0.954304
v -0.959283 -0.002381 0.883226
v -0.959283 2.272968 0.883226
v -0.959283 -0.002381 0.954304
v -0.959283 2.272968 0.954304
v -0.950789 0.273606 0.910475
v -0.950789 0.273606 -1.500664
v -0.950789 -0.001423 0.910475
v -0.950789 -0.001423 -1.500664
v 0.950789 0.273606 0.910475
v 0.950789 0.273606 -1.500664
v 0.950789 -0.001423 0.910475
v 0.950789 -0.001423 -1.500664
v -0.884911 0.189909 0.919577
v -0.884911 1.642451 0.919577
v 0.259424 1.642451 0.919577
v 0.884911 1.642451 0.919577
v 0.884911 0.189909 0.919577
v -0.259424 0.189909 0.919577
v -0.259424 1.642451 0.919577
v -0.000000 1.642451 0.919577
v 0.259424 0.189909 0.919577
v -0.000000 0.189909 0.919577
v -0.000000 0.274881 0.910475
v -0.000000 0.274881 -1.500664
v -0.000000 0.457967 0.849758
v -0.000000 0.457968 -1.439947
v 0.950789 0.274881 -1.484108
v 0.884911 -0.002381 -1.458479
v 0.884911 2.272968 -1.458479
v 0.884911 -0.002381 -1.529557
v 0.884911 2.272968 -1.529557
v 0.959283 -0.002381 -1.458479
v 0.959283 2.272968 -1.458479
v 0.959283 -0.002381 -1.529557
v 0.959283 2.272968 -1.529557
v -0.884911 -0.002381 -1.511358
v -0.884911 2.272968 -1.511358
v -0.884911 -0.002381 -1.440280
v -0.884911 2.272968 -1.440280
v -0.959283 -0.002381 -1.511358
v -0.959283 2.272968 -1.511358
v -0.959283 -0.002381 -1.440280
v -0.959283 2.272968 -1.440280
v 0.915348 0.542534 -1.505159
v 0.915348 2.241436 -1.505159
v -0.915348 0.542534 -1.505159
v -0.915348 2.241436 -1.505158
v -0.915348 0.542534 -1.499414
v 0.915348 0.542534 -1.499415
v 0.915348 2.241436 -1.499414
v -0.915348 2.241436 -1.499414
v -0.921424 0.542534 0.914112
v -0.921424 2.241436 0.914112
v -0.921424 0.542534 -1.478390
v -0.921424 2.241436 -1.478390
v -0.927168 0.542534 -1.478390
v -0.927168 0.542534 0.914112
v -0.927168 2.241436 0.914112
v -0.927168 2.241436 -1.478390
v 0.921424 0.542534 0.914112
v 0.921424 2.241436 0.914112
v 0.921424 0.542534 -1.478390
v 0.921424 2.241436 -1.478390
v 0.915680 0.542534 -1.478390
v 0.915680 0.542534 0.914112
v 0.915680 2.241436 0.914112
v 0.915680 2.241436 -1.478390
v 0.915348 0.542534 0.927082
v 0.915348 2.241436 0.927082
v -0.915348 0.542534 0.927082
v -0.915348 2.241436 0.927082
v -0.915348 0.542534 0.932826
v 0.915348 0.542534 0.932826
v 0.915348 2.241436 0.932826
v -0.915348 2.241436 0.932826
v -0.950789 0.366424 0.910475
v -0.950789 0.366424 -1.500664
v 0.950789 0.366424 0.910475
v 0.950789 0.366424 -1.500664
v -0.000000 0.366424 -1.500664
v -0.000000 0.366424 0.910475
v -0.852243 0.375183 0.842647
v -0.794892 0.619037 0.720729
v -0.852243 0.274937 0.411646
v -0.794892 0.556033 0.414200
v -0.051911 0.375183 0.842647
v -0.109262 0.619037 0.720729
v -0.051911 0.274937 0.411646
v -0.109262 0.556033 0.414200
v -0.852243 0.554131 0.801026
v -0.852243 0.453886 0.370025
v -0.051911 0.453886 0.370025
v -0.051911 0.554131 0.801026
v -0.901415 0.306979 0.632025
v -0.837017 0.612841 0.558774
v -0.002739 0.306979 0.632025
v -0.067137 0.612841 0.558774
v -0.002739 0.507917 0.585290
v -0.901415 0.507917 0.585290
v 0.051911 0.375183 0.842647
v 0.109262 0.619037 0.720729
v 0.051911 0.274937 0.411646
v 0.109262 0.556033 0.414200
v 0.852243 0.375183 0.842647
v 0.794892 0.619037 0.720729
v 0.852243 0.274937 0.411646
v 0.794892 0.556033 0.414200
v 0.051911 0.554131 0.801026
v 0.051911 0.453886 0.370025
v 0.852243 0.453886 0.370025
v 0.852243 0.554131 0.801026
v 0.002739 0.306979 0.632025
v 0.067137 0.612841 0.558774
v 0.901415 0.306979 0.632025
v 0.837017 0.612841 0.558774
v 0.901415 0.507917 0.585290
v 0.002739 0.507917 0.585290
vt 0.175416 0.062539
vt 0.175416 0.385997
vt 0.169275 0.385997
vt 0.169275 0.062539
vt 0.159822 0.238068
vt 0.089441 0.238068
vt 0.089441 0.016038
vt 0.159822 0.016038
vt 0.187697 0.062539
vt 0.187697 0.385997
vt 0.181556 0.385997
vt 0.181556 0.062539
vt 0.129091 0.461880
vt 0.129091 0.004123
vt 0.256269 0.004123
vt 0.256269 0.461880
vt 0.225005 0.308663
vt 0.225005 0.563762
vt 0.221935 0.563762
vt 0.221935 0.308663
vt 0.216144 0.305133
vt 0.216144 0.560232
vt 0.213074 0.560232
vt 0.213074 0.305133
vt 0.500609 0.219461
vt 0.309584 0.219461
vt 0.309584 0.023846
vt 0.500609 0.023846
vt 0.500609 0.358670
vt 0.309584 0.358670
vt 0.309584 0.289066
vt 0.500609 0.289066
vt 0.500609 0.530937
vt 0.309584 0.530937
vt 0.454773 0.979237
vt 0.048474 0.979237
vt 0.048474 0.929424
vt 0.454773 0.929425
vt 0.048474 0.929424
vt 0.454773 0.929425
vt 0.454773 0.979237
vt 0.048474 0.979237
vt 0.048474 0.929425
vt 0.454773 0.929425
vt 0.454773 0.979237
vt 0.048474 0.979237
vt 0.048474 0.929425
vt 0.454773 0.929425
vt 0.454773 0.979237
vt 0.048474 0.979237
vt 0.228141 0.993812
vt 0.218164 0.993812
vt 0.218164 0.989044
vt 0.228141 0.989044
vt 0.258072 0.993812
vt 0.248095 0.993812
vt 0.248095 0.989044
vt 0.258072 0.989044
vt 0.048474 0.929425
vt 0.454773 0.929425
vt 0.454773 0.979237
vt 0.048474 0.979237
vt 0.048474 0.929425
vt 0.454773 0.929425
vt 0.454773 0.979237
vt 0.048474 0.979237
vt 0.454773 0.979237
vt 0.048474 0.979237
vt 0.048474 0.929424
vt 0.454773 0.929425
vt 0.048474 0.929424
vt 0.454773 0.929425
vt 0.454773 0.979237
vt 0.048474 0.979237
vt 0.238118 0.989044
vt 0.248095 0.989044
vt 0.248095 0.993812
vt 0.238118 0.993812
vt 0.228141 0.989044
vt 0.238118 0.989044
vt 0.238118 0.993812
vt 0.228141 0.993812
vt 0.462082 0.983391
vt 0.037006 0.983391
vt 0.037006 0.844239
vt 0.462082 0.844238
vt 0.037006 0.844239
vt 0.462082 0.844238
vt 0.462082 0.983391
vt 0.037006 0.983391
vt 0.037006 0.844239
vt 0.462082 0.844239
vt 0.462082 0.983391
vt 0.037006 0.983391
vt 0.500609 0.358670
vt 0.500609 0.530937
vt 0.309584 0.530937
vt 0.309584 0.358670
vt 0.500609 0.219461
vt 0.500609 0.289066
vt 0.309584 0.289066
vt 0.309584 0.219461
vt 0.500609 0.023846
vt 0.309584 0.023846
vt 0.962863 0.741813
vt 0.962863 0.672209
vt 0.963071 0.672209
vt 0.963071 0.741813
vt 0.962863 0.909633
vt 0.963071 0.909633
vt 0.962863 0.602605
vt 0.962863 0.434785
vt 0.963071 0.434785
vt 0.963071 0.602605
vt 0.965755 0.909633
vt 0.965755 0.741813
vt 0.965962 0.741813
vt 0.965962 0.909633
vt 0.965755 0.672209
vt 0.965962 0.672209
vt 0.965162 0.434785
vt 0.965162 0.824506
vt 0.964955 0.824506
vt 0.964955 0.434785
vt 0.965755 0.602605
vt 0.965755 0.434785
vt 0.965962 0.434785
vt 0.965962 0.602605
vt 0.965369 0.434785
vt 0.965369 0.824506
vt 0.965162 0.824506
vt 0.965162 0.434785
vt 0.216144 0.050033
vt 0.213074 0.050033
vt 0.225005 0.053563
vt 0.221935 0.053563
vt 0.001912 0.461880
vt 0.001912 0.004123
vt 0.159822 0.460097
vt 0.089441 0.460097
vt 0.048474 0.929425
vt 0.454773 0.929425
vt 0.454773 0.979237
vt 0.048474 0.979237
vt 0.048474 0.929425
vt 0.454773 0.929425
vt 0.454773 0.979237
vt 0.048474 0.979237
vt 0.048474 0.929425
vt 0.454773 0.929425
vt 0.454773 0.979237
vt 0.048474 0.979237
vt 0.048474 0.929425
vt 0.454773 0.929425
vt 0.454773 0.979237
vt 0.048474 0.979237
vt 0.288003 0.993812
vt 0.278026 0.993812
vt 0.278026 0.989044
vt 0.288003 0.989044
vt 0.278026 0.993812
vt 0.268049 0.993812
vt 0.268049 0.989044
vt 0.278026 0.989044
vt 0.048474 0.929424
vt 0.454773 0.929425
vt 0.454773 0.979237
vt 0.048474 0.979237
vt 0.048474 0.929424
vt 0.454773 0.929425
vt 0.454773 0.979237
vt 0.048474 0.979237
vt 0.048474 0.929424
vt 0.454773 0.929425
vt 0.454773 0.979237
vt 0.048474 0.979237
vt 0.048474 0.929425
vt 0.454773 0.929425
vt 0.454773 0.979237
vt 0.048474 0.979237
vt 0.297981 0.993812
vt 0.288003 0.993812
vt 0.288003 0.989044
vt 0.297981 0.989044
vt 0.258072 0.989044
vt 0.268049 0.989044
vt 0.268049 0.993812
vt 0.258072 0.993812
vt 0.946520 0.039928
vt 0.563605 0.039928
vt 0.563605 0.906964
vt 0.946520 0.906964
vt 0.946520 0.039928
vt 0.946520 0.906964
vt 0.563605 0.906964
vt 0.563605 0.039928
vt 0.965562 0.890606
vt 0.965562 0.434785
vt 0.965755 0.434785
vt 0.965755 0.890606
vt 0.964034 0.434785
vt 0.964034 0.890606
vt 0.963841 0.890606
vt 0.963841 0.434785
vt 0.963456 0.925966
vt 0.963456 0.434785
vt 0.963648 0.434785
vt 0.963648 0.925966
vt 0.963071 0.925966
vt 0.963071 0.434785
vt 0.963263 0.434785
vt 0.963263 0.925966
vt 0.563605 0.039928
vt 0.946520 0.039928
vt 0.946520 0.906964
vt 0.563605 0.906964
vt 0.563605 0.039928
vt 0.563605 0.906964
vt 0.946520 0.906964
vt 0.946520 0.039928
vt 0.525520 0.750427
vt 0.525520 0.522517
vt 0.525905 0.522517
vt 0.525905 0.750427
vt 0.525135 0.522517
vt 0.525135 0.750427
vt 0.524749 0.750427
vt 0.524749 0.522517
vt 0.962093 0.434785
vt 0.962093 0.755743
vt 0.961707 0.755743
vt 0.961707 0.434785
vt 0.962093 0.755743
vt 0.962093 0.434785
vt 0.962478 0.434785
vt 0.962478 0.755743
vt 0.946520 0.039928
vt 0.563605 0.039928
vt 0.563605 0.906964
vt 0.946520 0.906964
vt 0.946520 0.039928
vt 0.946520 0.906964
vt 0.563605 0.906964
vt 0.563605 0.039928
vt 0.525135 0.750427
vt 0.525135 0.522517
vt 0.525520 0.522517
vt 0.525520 0.750427
vt 0.526290 0.522517
vt 0.526290 0.750427
vt 0.525905 0.750427
vt 0.525905 0.522517
vt 0.961707 0.434785
vt 0.961707 0.755743
vt 0.961322 0.755743
vt 0.961322 0.434785
vt 0.962478 0.755743
vt 0.962478 0.434785
vt 0.962863 0.434785
vt 0.962863 0.755743
vt 0.563605 0.039928
vt 0.946520 0.039928
vt 0.946520 0.906964
vt 0.563605 0.906964
vt 0.563605 0.039928
vt 0.563605 0.906964
vt 0.946520 0.906964
vt 0.946520 0.039928
vt 0.965562 0.434785
vt 0.965562 0.890606
vt 0.965369 0.890606
vt 0.965369 0.434785
vt 0.964226 0.434785
vt 0.964226 0.890606
vt 0.964034 0.890606
vt 0.964034 0.434785
vt 0.963456 0.434785
vt 0.963456 0.925966
vt 0.963263 0.925966
vt 0.963263 0.434785
vt 0.963841 0.434785
vt 0.963841 0.925966
vt 0.963648 0.925966
vt 0.963648 0.434785
vt 0.228075 0.053563
vt 0.228075 0.308663
vt 0.219214 0.050033
vt 0.219214 0.305133
vt 0.219214 0.560232
vt 0.228075 0.563762
vt 0.193837 0.062539
vt 0.193837 0.385997
vt 0.181556 0.062539
vt 0.181556 0.385997
vt 0.128178 0.548778
vt 0.111560 0.520433
vt 0.128222 0.509505
vt 0.110537 0.558175
vt 0.164347 0.590416
vt 0.106383 0.590416
vt 0.144106 0.547719
vt 0.159665 0.573985
vt 0.144551 0.585695
vt 0.160077 0.588235
vt 0.106267 0.564651
vt 0.164231 0.564651
vt 0.000000 0.000000
vt 0.000000 0.000000
vt 0.000000 0.000000
vt 0.107486 0.526445
vt 0.160193 0.506174
vt 0.163244 0.526445
vt 0.106267 0.511426
vt 0.164231 0.511426
vt 0.112583 0.585695
vt 0.108209 0.547719
vt 0.000000 0.000000
vt 0.000000 0.000000
vt 0.000000 0.000000
vt 0.160191 0.509505
vt 0.164075 0.548778
vt 0.159702 0.586754
vt 0.112094 0.508446
vt 0.160193 0.558175
vt 0.000000 0.000000
vt 0.160724 0.519374
vt 0.144062 0.508446
vt 0.112620 0.575044
vt 0.127733 0.586754
vt 0.108209 0.547719
vt 0.164075 0.546660
vt 0.110421 0.588235
vt 0.110537 0.506174
vt 0.000000 0.000000
vt 0.128178 0.548778
vt 0.111560 0.520433
vt 0.128222 0.509505
vt 0.110537 0.558175
vt 0.164347 0.590416
vt 0.106383 0.590416
vt 0.144106 0.547719
vt 0.159665 0.573985
vt 0.144551 0.585695
vt 0.160077 0.588235
vt 0.106267 0.564651
vt 0.164231 0.564651
vt 0.000000 0.000000
vt 0.000000 0.000000
vt 0.000000 0.000000
vt 0.107486 0.526445
vt 0.160193 0.506174
vt 0.163244 0.526445
vt 0.106267 0.511426
vt 0.164231 0.511426
vt 0.112583 0.585695
vt 0.108209 0.547719
vt 0.000000 0.000000
vt 0.000000 0.000000
vt 0.000000 0.000000
vt 0.160191 0.509505
vt 0.164075 0.548778
vt 0.159702 0.586754
vt 0.112094 0.508446
vt 0.160193 0.558175
vt 0.000000 0.000000
vt 0.160724 0.519374
vt 0.144062 0.508446
vt 0.112620 0.575044
vt 0.127733 0.586754
vt 0.108209 0.547719
vt 0.164075 0.546660
vt 0.110421 0.588235
vt 0.110537 0.506174
vt 0.000000 0.000000
vn -1.0000 0.0000 0.0000
vn 0.0000 -1.0000 -0.0000
vn 0.8861 0.4635 0.0000
vn 0.0000 1.0000 0.0000
vn 0.0000 0.5527 0.8334
vn 0.0000 0.5527 -0.8334
vn 0.0000 -0.0000 1.0000
vn 0.0000 0.0000 -1.0000
vn 1.0000 -0.0000 0.0000
vn -0.8861 0.4635 0.0000
vn -0.7624 0.5647 -0.3159
vn 0.0000 0.3969 -0.9178
vn 0.7352 0.6774 0.0225
vn 0.0000 0.7777 0.6286
vn 0.0000 -0.9514 0.3081
vn 0.0000 0.9993 -0.0382
vn 0.0000 0.2265 0.9740
vn 0.9760 0.0493 0.2119
vn 0.0000 -0.2265 -0.9740
vn -0.9763 -0.0490 -0.2107
vn -0.9760 0.0493 0.2119
vn 0.9763 -0.0490 -0.2107
vn 0.0000 0.9307 -0.3657
vn 0.0000 -0.9896 0.1439
vn 0.7624 0.5647 -0.3159
vn -0.7352 0.6774 0.0225
vn -0.8231 0.4044 -0.3987
vn 0.8144 0.5481 0.1909
vn 0.8231 0.4044 -0.3987
vn -0.8144 0.5481 0.1909
usemtl master_bed_material
s off
f 106/1/1 107/2/1 4/3/1 3/4/1
f 53/5/2 54/6/2 8/7/2 7/8/2
f 108/9/3 109/10/3 6/11/3 5/12/3
f 55/13/4 56/14/4 2/15/4 1/16/4
f 111/17/5 108/18/5 5/19/5 55/20/5
f 110/21/6 107/22/6 2/23/6 56/24/6
f 15/25/7 16/26/7 12/27/7 10/28/7
f 18/29/7 17/30/7 14/31/7 13/32/7
f 13/32/7 14/31/7 16/26/7 15/25/7
f 9/33/7 11/34/7 17/30/7 18/29/7
f 19/35/1 20/36/1 22/37/1 21/38/1
f 21/39/8 22/40/8 26/41/8 25/42/8
f 25/43/9 26/44/9 24/45/9 23/46/9
f 23/47/7 24/48/7 20/49/7 19/50/7
f 21/51/2 25/52/2 23/53/2 19/54/2
f 26/55/4 22/56/4 20/57/4 24/58/4
f 27/59/9 28/60/9 30/61/9 29/62/9
f 29/63/7 30/64/7 34/65/7 33/66/7
f 33/67/1 34/68/1 32/69/1 31/70/1
f 31/71/8 32/72/8 28/73/8 27/74/8
f 29/75/2 33/76/2 31/77/2 27/78/2
f 34/79/4 30/80/4 28/81/4 32/82/4
f 35/83/1 36/84/1 38/85/1 37/86/1
f 41/87/9 42/88/9 40/89/9 39/90/9
f 42/91/8 38/92/8 36/93/8 40/94/8
f 45/95/8 46/96/8 47/97/8 51/98/8
f 49/99/8 50/100/8 52/101/8 48/102/8
f 50/100/8 45/95/8 51/98/8 52/101/8
f 44/103/8 49/99/8 48/102/8 43/104/8
f 18/105/2 13/106/2 50/107/2 49/108/2
f 9/109/2 18/105/2 49/108/2 44/110/2
f 15/111/2 10/112/2 46/113/2 45/114/2
f 12/115/4 16/116/4 51/117/4 47/118/4
f 16/116/4 14/119/4 52/120/4 51/117/4
f 10/121/1 12/122/1 47/123/1 46/124/1
f 17/125/4 11/126/4 43/127/4 48/128/4
f 14/119/4 17/125/4 48/128/4 52/120/4
f 11/129/9 9/130/9 44/131/9 43/132/9
f 13/106/2 15/111/2 45/114/2 50/107/2
f 109/133/6 110/21/6 56/24/6 6/134/6
f 106/135/5 111/17/5 55/20/5 1/136/5
f 5/137/4 6/138/4 56/14/4 55/13/4
f 3/139/2 4/140/2 54/6/2 53/5/2
f 58/141/1 59/142/1 61/143/1 60/144/1
f 60/145/8 61/146/8 65/147/8 64/148/8
f 64/149/9 65/150/9 63/151/9 62/152/9
f 62/153/7 63/154/7 59/155/7 58/156/7
f 60/157/2 64/158/2 62/159/2 58/160/2
f 65/161/4 61/162/4 59/163/4 63/164/4
f 66/165/9 67/166/9 69/167/9 68/168/9
f 68/169/7 69/170/7 73/171/7 72/172/7
f 72/173/1 73/174/1 71/175/1 70/176/1
f 70/177/8 71/178/8 67/179/8 66/180/8
f 68/181/2 72/182/2 70/183/2 66/184/2
f 73/185/4 69/186/4 67/187/4 71/188/4
f 74/189/8 76/190/8 77/191/8 75/192/8
f 79/193/7 80/194/7 81/195/7 78/196/7
f 77/197/1 76/198/1 78/199/1 81/200/1
f 74/201/9 75/202/9 80/203/9 79/204/9
f 75/205/4 77/206/4 81/207/4 80/208/4
f 76/209/2 74/210/2 79/211/2 78/212/2
f 82/213/9 84/214/9 85/215/9 83/216/9
f 87/217/1 88/218/1 89/219/1 86/220/1
f 85/221/8 84/222/8 86/223/8 89/224/8
f 82/225/7 83/226/7 88/227/7 87/228/7
f 83/229/4 85/230/4 89/231/4 88/232/4
f 84/233/2 82/234/2 87/235/2 86/236/2
f 90/237/9 92/238/9 93/239/9 91/240/9
f 95/241/1 96/242/1 97/243/1 94/244/1
f 93/245/8 92/246/8 94/247/8 97/248/8
f 90/249/7 91/250/7 96/251/7 95/252/7
f 91/253/4 93/254/4 97/255/4 96/256/4
f 92/257/2 90/258/2 95/259/2 94/260/2
f 98/261/8 100/262/8 101/263/8 99/264/8
f 103/265/7 104/266/7 105/267/7 102/268/7
f 101/269/1 100/270/1 102/271/1 105/272/1
f 98/273/9 99/274/9 104/275/9 103/276/9
f 99/277/4 101/278/4 105/279/4 104/280/4
f 100/281/2 98/282/2 103/283/2 102/284/2
f 3/285/7 53/286/7 111/17/7 106/135/7
f 8/287/8 54/288/8 110/21/8 109/133/8
f 54/288/8 4/289/8 107/22/8 110/21/8
f 53/286/7 7/290/7 108/18/7 111/17/7
f 7/291/9 8/292/9 109/10/9 108/9/9
f 1/293/10 2/294/10 107/2/10 106/1/10
usemtl (null)
f 129/295/11 115/296/11 121/297/11
f 115/298/12 122/299/12 121/300/12
f 128/301/13 117/302/13 123/303/13
f 117/304/14 120/305/14 123/306/14
f 124/307/15 116/308/15 112/309/15
f 125/310/16 117/311/16 127/312/16
f 123/306/17 112/313/17 116/314/17
f 128/301/18 116/315/18 126/316/18
f 121/317/19 118/318/19 114/319/19
f 129/295/20 114/320/20 124/321/20
f 112/322/21 129/295/21 124/321/21
f 118/323/22 128/301/22 126/316/22
f 115/298/23 127/312/23 119/324/23
f 114/319/24 126/325/24 124/307/24
f 119/326/25 128/301/25 122/327/25
f 113/328/26 129/295/26 120/329/26
f 129/295/27 125/330/27 115/296/27
f 115/298/12 119/324/12 122/299/12
f 128/301/28 127/331/28 117/302/28
f 117/304/14 113/332/14 120/305/14
f 124/307/15 126/325/15 116/308/15
f 125/310/16 113/333/16 117/311/16
f 123/306/17 120/305/17 112/313/17
f 128/301/18 123/303/18 116/315/18
f 121/317/19 122/334/19 118/318/19
f 129/295/20 121/297/20 114/320/20
f 112/322/21 120/329/21 129/295/21
f 118/323/22 122/327/22 128/301/22
f 115/298/23 125/310/23 127/312/23
f 114/319/24 118/318/24 126/325/24
f 119/326/29 127/331/29 128/301/29
f 113/328/30 125/330/30 129/295/30
f 147/335/11 133/336/11 139/337/11
f 133/338/12 140/339/12 139/340/12
f 146/341/13 135/342/13 141/343/13
f 135/344/14 138/345/14 141/346/14
f 142/347/15 134/348/15 130/349/15
f 143/350/16 135/351/16 145/352/16
f 141/346/17 130/353/17 134/354/17
f 146/341/18 134/355/18 144/356/18
f 139/357/19 136/358/19 132/359/19
f 147/335/20 132/360/20 142/361/20
f 130/362/21 147/335/21 142/361/21
f 136/363/22 146/341/22 144/356/22
f 133/338/23 145/352/23 137/364/23
f 132/359/24 144/365/24 142/347/24
f 137/366/25 146/341/25 140/367/25
f 131/368/26 147/335/26 138/369/26
f 147/335/27 143/370/27 133/336/27
f 133/338/12 137/364/12 140/339/12
f 146/341/28 145/371/28 135/342/28
f 135/344/14 131/372/14 138/345/14
f 142/347/15 144/365/15 134/348/15
f 143/350/16 131/373/16 135/351/16
f 141/346/17 138/345/17 130/353/17
f 146/341/18 141/343/18 134/355/18
f 139/357/19 140/374/19 136/358/19
f 147/335/20 139/337/20 132/360/20
f 130/362/21 138/369/21 147/335/21
f 136/363/22 140/367/22 146/341/22
f 133/338/23 143/350/23 145/352/23
f 132/359/24 136/358/24 144/365/24
f 137/366/29 145/371/29 146/341/29
f 131/368/30 143/370/30 147/335/30
