# Blender v3.0.1 OBJ File: 'piano.blend'
# www.blender.org
mtllib piano.mtl
o Piano_Plane.001
v -0.992834 0.586798 -0.397861
v 0.796485 0.586798 -0.397861
v -0.992834 0.586798 -1.202536
v 0.796485 0.586798 -1.099176
v 0.501663 0.586798 -0.397861
v 0.501663 0.586798 -1.202536
v -0.295582 0.586798 -1.718583
v -0.295582 0.586798 -0.397861
v 0.103040 0.586798 -0.397861
v 0.103040 0.586798 -1.555986
v -0.694205 0.586798 -1.555986
v -0.694205 0.586798 -0.397861
v -0.893516 0.586798 -1.336492
v -0.893516 0.586798 -0.397861
v -0.494893 0.586798 -0.397861
v -0.494893 0.586798 -1.703699
v -0.096271 0.586798 -1.703699
v -0.096271 0.586798 -0.397861
v 0.302352 0.586798 -0.397861
v 0.302352 0.586798 -1.336492
v 0.716259 0.586798 -0.397861
v 0.716259 0.586798 -1.202536
v -0.992834 1.098383 -1.202536
v -0.992834 1.098383 -0.517151
v 0.716259 1.098383 -0.517151
v 0.796485 1.098383 -0.517151
v 0.796485 1.098383 -1.099176
v -0.893516 1.098383 -1.336492
v 0.302352 1.098383 -0.517151
v 0.501663 1.098383 -0.517151
v 0.716259 1.098383 -1.202536
v 0.501663 1.098383 -1.202536
v -0.096271 1.098383 -1.703699
v -0.295582 1.098383 -1.718583
v -0.494893 1.098383 -0.517151
v -0.295582 1.098383 -0.517151
v -0.096271 1.098383 -0.517151
v 0.103040 1.098383 -0.517151
v 0.302352 1.098383 -1.336492
v 0.103040 1.098383 -1.555986
v -0.494893 1.098383 -1.703699
v -0.694205 1.098383 -1.555986
v -0.893516 1.098383 -0.517151
v -0.694205 1.098383 -0.517151
v 0.103040 0.842590 -1.555986
v 0.302352 0.842590 -1.336492
v 0.501663 0.842590 -1.202536
v 0.501663 0.785511 -0.397861
v 0.302352 0.785511 -0.397861
v -0.494893 0.785511 -0.397861
v -0.694205 0.785511 -0.397861
v 0.716259 0.842590 -1.202536
v -0.494893 0.842590 -1.703699
v -0.295582 0.842590 -1.718583
v -0.694205 0.842590 -1.555986
v 0.716259 0.785511 -0.397861
v -0.893516 0.785511 -0.397861
v 0.796485 0.842590 -1.099176
v -0.096271 0.842590 -1.703699
v -0.992834 0.785511 -0.397861
v -0.992834 0.842590 -1.202536
v -0.295582 0.785511 -0.397861
v -0.096271 0.785511 -0.397861
v 0.796485 0.785511 -0.397861
v -0.893516 0.842590 -1.336492
v 0.103040 0.785511 -0.397861
v 0.716259 0.586798 -0.044293
v 0.796485 0.586798 -0.044293
v 0.302352 0.586798 -0.044293
v 0.501663 0.586798 -0.044293
v -0.494893 0.586798 -0.044293
v -0.295582 0.586798 -0.044293
v -0.096271 0.586798 -0.044293
v 0.103040 0.586798 -0.044293
v -0.893516 0.586798 -0.044293
v -0.694205 0.586798 -0.044293
v -0.992834 0.586798 -0.044293
v 0.302352 0.785511 -0.044293
v -0.694205 0.785511 -0.044293
v -0.893516 0.785511 -0.044293
v 0.501663 0.785511 -0.044293
v -0.494893 0.785511 -0.044293
v 0.716259 0.785511 -0.044293
v -0.992834 0.785511 -0.044293
v -0.295582 0.785511 -0.044293
v -0.096271 0.785511 -0.044293
v 0.796485 0.785511 -0.044293
v 0.103040 0.785511 -0.044293
v -0.856740 0.002054 -0.237034
v -0.856740 0.659061 -0.237034
v -0.856740 0.002054 -0.356074
v -0.856740 0.659061 -0.356074
v -0.743977 0.002054 -0.237034
v -0.743977 0.659061 -0.237034
v -0.743977 0.002054 -0.356074
v -0.743977 0.659061 -0.356074
v 0.539969 0.002054 -0.237034
v 0.539969 0.659061 -0.237034
v 0.539969 0.002054 -0.356074
v 0.539969 0.659061 -0.356074
v 0.652733 0.002054 -0.237034
v 0.652733 0.659061 -0.237034
v 0.652733 0.002054 -0.356074
v 0.652733 0.659061 -0.356074
v -0.856740 0.002054 -1.144469
v -0.856740 0.659061 -1.144469
v -0.856740 0.002054 -1.263509
v -0.856740 0.659061 -1.263509
v -0.743977 0.002054 -1.144469
v -0.743977 0.659061 -1.144469
v -0.743977 0.002054 -1.263509
v -0.743977 0.659061 -1.263509
v 0.539969 0.002054 -0.931691
v 0.539969 0.659061 -0.931691
v 0.539969 0.002054 -1.050731
v 0.539969 0.659061 -1.050731
v 0.652733 0.002054 -0.931691
v 0.652733 0.659061 -0.931691
v 0.652733 0.002054 -1.050731
v 0.652733 0.659061 -1.050731
v 0.103040 1.037502 -1.555986
v 0.501663 1.037671 -0.517151
v -0.494893 1.037671 -0.517151
v -0.494893 1.037502 -1.703699
v -0.694205 1.037502 -1.555986
v 0.716259 1.037671 -0.517151
v -0.992834 1.037671 -0.517151
v -0.295582 1.037671 -0.517151
v -0.096271 1.037671 -0.517151
v 0.796485 1.037671 -0.517151
v -0.893516 1.037502 -1.336492
v 0.103040 1.037671 -0.517151
v 0.302352 1.037502 -1.336492
v 0.501663 1.037502 -1.202536
v 0.302352 1.037671 -0.517151
v -0.694205 1.037671 -0.517151
v 0.716259 1.037502 -1.202536
v -0.295582 1.037502 -1.718583
v -0.893516 1.037671 -0.517151
v 0.796485 1.037502 -1.099176
v -0.096271 1.037502 -1.703699
v -0.992834 1.037502 -1.202536
v 0.302352 0.866289 -1.336492
v 0.501663 0.866289 -1.202536
v 0.302352 0.823480 -0.397861
v -0.694205 0.823480 -0.397861
v 0.716259 0.866289 -1.202536
v -0.295582 0.866289 -1.718583
v -0.893516 0.823480 -0.397861
v 0.796485 0.866289 -1.099176
v -0.096271 0.866289 -1.703699
v -0.992834 0.866289 -1.202536
v 0.103040 0.866289 -1.555986
v 0.501663 0.823480 -0.397861
v -0.494893 0.823480 -0.397861
v -0.494893 0.866289 -1.703699
v -0.694205 0.866289 -1.555986
v 0.716259 0.823480 -0.397861
v -0.992834 0.823480 -0.397861
v -0.295582 0.823480 -0.397861
v -0.096271 0.823480 -0.397861
v 0.796485 0.823480 -0.397861
v -0.893516 0.866289 -1.336492
v 0.103040 0.823480 -0.397861
v 0.716259 1.098383 -0.454707
v 0.796485 1.098383 -0.454707
v 0.302352 1.098383 -0.454707
v 0.501663 1.098383 -0.454707
v -0.494893 1.098383 -0.454707
v -0.295582 1.098383 -0.454707
v -0.096271 1.098383 -0.454707
v 0.103040 1.098383 -0.454707
v -0.893516 1.098383 -0.454707
v -0.694205 1.098383 -0.454707
v -0.992834 1.098383 -0.454707
v 0.501663 1.037671 -0.454707
v -0.494893 1.037671 -0.454707
v 0.716259 1.037671 -0.454707
v -0.992834 1.037671 -0.454707
v -0.295582 1.037671 -0.454707
v -0.096271 1.037671 -0.454707
v 0.796485 1.037671 -0.454707
v 0.103040 1.037671 -0.454707
v 0.302352 0.823480 -0.335418
v 0.302352 0.785511 -0.335418
v -0.694205 0.823480 -0.335418
v -0.694205 0.785511 -0.335418
v -0.893516 0.823480 -0.335418
v -0.893516 0.785511 -0.335418
v 0.103040 0.785511 -0.335418
v -0.096271 0.785511 -0.335418
v -0.992834 0.785511 -0.335418
v 0.796485 0.785511 -0.335418
v 0.716259 0.785511 -0.335418
v -0.295582 0.785511 -0.335418
v -0.494893 0.785511 -0.335418
v 0.501663 0.785511 -0.335418
v 0.716259 0.823480 -0.335418
v -0.992834 0.823480 -0.335418
v 0.796485 0.823480 -0.335418
v 0.302352 1.037671 -0.454707
v -0.694205 1.037671 -0.454707
v -0.893516 1.037671 -0.454707
v 0.501663 0.823480 -0.335418
v -0.494893 0.823480 -0.335418
v -0.295582 0.823480 -0.335418
v -0.096271 0.823480 -0.335418
v 0.103040 0.823480 -0.335418
vt 0.625325 1.471147
vt 0.625325 1.306367
vt 0.647665 1.327533
vt 0.647665 1.471147
vt 0.510065 1.471146
vt 0.510065 1.278935
vt 0.565567 1.306367
vt 0.565567 1.471147
vt 0.288058 1.471146
vt 0.288058 1.203739
vt 0.343560 1.200692
vt 0.343560 1.471146
vt 0.399062 1.471146
vt 0.399062 1.203740
vt 0.454563 1.233988
vt 0.454563 1.471146
vt 0.177055 1.471146
vt 0.177055 1.278935
vt 0.232557 1.233988
vt 0.232557 1.471146
vt 0.149398 1.471146
vt 0.149398 1.306367
vt 0.182197 0.883057
vt 0.159857 0.883057
vt 0.159857 0.739443
vt 0.182197 0.718277
vt 0.297457 0.883057
vt 0.241955 0.883057
vt 0.241955 0.718277
vt 0.297457 0.690845
vt 0.519464 0.883057
vt 0.463962 0.883057
vt 0.463962 0.612602
vt 0.519464 0.615650
vt 0.408460 0.883057
vt 0.352959 0.883057
vt 0.352959 0.645898
vt 0.408460 0.615650
vt 0.630467 0.883057
vt 0.574965 0.883057
vt 0.574965 0.645898
vt 0.630467 0.690846
vt 0.658124 0.883057
vt 0.658124 0.718277
vt 0.364633 0.469473
vt 0.452311 0.469473
vt 0.452311 0.487357
vt 0.364633 0.487357
vt 0.285017 0.469473
vt 0.285017 0.487357
vt 0.161040 0.525365
vt 0.230444 0.525365
vt 0.217201 0.542851
vt 0.147798 0.542851
vt 0.001840 0.253206
vt 0.051551 0.253206
vt 0.051551 0.253206
vt 0.001840 0.253206
vt 0.199295 0.469473
vt 0.199295 0.487357
vt 0.358527 0.544612
vt 0.438143 0.544612
vt 0.438143 0.562496
vt 0.358527 0.562496
vt 0.517759 0.544612
vt 0.517759 0.562496
vt 0.497849 0.576466
vt 0.567859 0.576466
vt 0.567859 0.592596
vt 0.497849 0.592596
vt 0.224205 0.562496
vt 0.224786 0.573634
vt 0.199876 0.574933
vt 0.199295 0.563795
vt 0.507824 0.621824
vt 0.549056 0.619673
vt 0.549988 0.637533
vt 0.508756 0.639684
vt 0.278911 0.544612
vt 0.278911 0.562496
vt 0.199295 0.544612
vt 0.199295 0.562496
vt 0.341038 0.715426
vt 0.614638 0.725392
vt 0.613992 0.743214
vt 0.340390 0.733298
vt 0.637869 0.576466
vt 0.713248 0.576466
vt 0.713248 0.592596
vt 0.637869 0.592596
vt 0.275649 0.633985
vt 0.250740 0.635284
vt 0.408460 0.883057
vt 0.352959 0.883057
vt 0.199943 0.710312
vt 0.287564 0.713488
vt 0.286916 0.731360
vt 0.199295 0.728184
vt 0.276578 0.651795
vt 0.450588 0.253206
vt 0.550348 0.253206
vt 0.550348 0.253206
vt 0.450588 0.253206
vt 0.251669 0.653094
vt 0.463962 0.883057
vt 0.427142 0.825475
vt 0.381105 0.825475
vt 0.381105 0.773095
vt 0.427142 0.773095
vt 0.232557 1.543549
vt 0.177055 1.543549
vt 0.749866 0.253206
vt 0.650107 0.253206
vt 0.650107 0.028252
vt 0.749866 0.028252
vt 0.625325 1.543550
vt 0.565567 1.543550
vt 0.622184 0.930237
vt 0.490006 0.930237
vt 0.490006 0.877856
vt 0.622184 0.889545
vt 0.509661 0.825475
vt 0.509661 0.773095
vt 0.251070 0.253206
vt 0.151310 0.253206
vt 0.151310 0.028251
vt 0.251070 0.028252
vt 0.001840 0.028251
vt 0.051551 0.028251
vt 0.450588 0.028252
vt 0.550348 0.028252
vt 0.220130 0.825475
vt 0.220130 0.784783
vt 0.261758 0.930237
vt 0.193061 0.930237
vt 0.193061 0.877856
vt 0.261758 0.877856
vt 0.149398 0.930237
vt 0.149398 0.877856
vt 0.454079 0.930237
vt 0.454079 0.877856
vt 0.288058 1.543550
vt 0.510065 1.543550
vt 0.577820 0.825475
vt 0.577820 0.773095
vt 0.619406 0.825475
vt 0.619406 0.773095
vt 0.410089 0.930237
vt 0.410089 0.877856
vt 0.350829 0.253206
vt 0.350829 0.028252
vt 0.343984 0.930237
vt 0.343984 0.877856
vt 0.548150 -0.030107
vt 0.647368 -0.030107
vt 0.647368 0.042637
vt 0.548150 0.042637
vt 0.448933 -0.030107
vt 0.448933 0.042637
vt 0.002620 -0.030107
vt 0.052061 -0.030107
vt 0.052061 0.042637
vt 0.002620 0.042637
vt 0.853413 -0.030107
vt 0.893350 -0.030107
vt 0.893350 0.042637
vt 0.853413 0.042637
vt 0.349714 -0.030107
vt 0.349714 0.042637
vt 0.250497 -0.030107
vt 0.250497 0.042637
vt 0.151279 -0.030107
vt 0.151279 0.042637
vt 0.746586 -0.030107
vt 0.746586 0.042637
vt 0.688821 0.889545
vt 0.688821 0.930237
vt 0.343560 1.543550
vt 0.399062 1.543550
vt 0.893009 0.253206
vt 0.857276 0.253206
vt 0.857276 0.028252
vt 0.893009 0.028252
vt 0.647665 1.543550
vt 0.149398 1.543549
vt 0.454563 1.543550
vt 0.149398 0.825475
vt 0.149398 0.784783
vt 0.967089 0.549154
vt 0.962412 0.976227
vt 0.938328 0.977844
vt 0.936903 0.547807
vt 0.969095 0.550935
vt 0.962962 0.979175
vt 0.940195 0.977715
vt 0.938483 0.550067
vt 0.968711 0.549899
vt 0.962579 0.978140
vt 0.939811 0.976679
vt 0.938099 0.549031
vt 0.967525 0.548708
vt 0.964315 0.980940
vt 0.941305 0.981552
vt 0.937955 0.548122
vt 0.125000 0.500000
vt 0.375000 0.500000
vt 0.375000 0.750000
vt 0.125000 0.750000
vt 0.625000 0.500000
vt 0.875000 0.500000
vt 0.875000 0.750000
vt 0.625000 0.750000
vt 0.966318 0.549743
vt 0.961642 0.976817
vt 0.937558 0.978433
vt 0.936133 0.548397
vt 0.969175 0.553952
vt 0.963043 0.982193
vt 0.940276 0.980732
vt 0.938563 0.553084
vt 0.970141 0.549225
vt 0.964009 0.977466
vt 0.941241 0.976005
vt 0.939529 0.548357
vt 0.968004 0.548420
vt 0.963328 0.975493
vt 0.939244 0.977109
vt 0.937819 0.547073
vt 0.967791 0.551333
vt 0.963115 0.978407
vt 0.939030 0.980023
vt 0.937605 0.549987
vt 0.625000 0.500000
vt 0.875000 0.500000
vt 0.875000 0.750000
vt 0.625000 0.750000
vt 0.968126 0.552885
vt 0.963450 0.979959
vt 0.939366 0.981575
vt 0.937941 0.551539
vt 0.970955 0.549237
vt 0.964823 0.977477
vt 0.942055 0.976017
vt 0.940343 0.548369
vt 0.970141 0.549225
vt 0.964009 0.977466
vt 0.941241 0.976005
vt 0.939529 0.548357
vt 0.966752 0.551386
vt 0.962076 0.978459
vt 0.937991 0.980076
vt 0.936566 0.550040
vt 0.125000 0.500000
vt 0.375000 0.500000
vt 0.375000 0.750000
vt 0.125000 0.750000
vt 0.625000 0.500000
vt 0.875000 0.500000
vt 0.875000 0.750000
vt 0.625000 0.750000
vt 0.969029 0.547885
vt 0.964352 0.974958
vt 0.940268 0.976575
vt 0.938843 0.546538
vt 0.969157 0.556322
vt 0.963025 0.984563
vt 0.940257 0.983103
vt 0.938545 0.555454
vt 0.970141 0.549225
vt 0.964009 0.977466
vt 0.941241 0.976005
vt 0.939529 0.548357
vt 0.968650 0.555269
vt 0.963974 0.982343
vt 0.939889 0.983959
vt 0.938464 0.553923
vt 0.125000 0.500000
vt 0.375000 0.500000
vt 0.375000 0.750000
vt 0.125000 0.750000
vt 0.625000 0.500000
vt 0.875000 0.500000
vt 0.875000 0.750000
vt 0.625000 0.750000
vt 0.289385 0.663227
vt 0.342859 0.665165
vt 0.497849 0.592596
vt 0.567859 0.592596
vt 0.567859 0.652291
vt 0.497849 0.652291
vt 0.427838 0.592596
vt 0.427838 0.652291
vt 0.147798 0.576466
vt 0.217808 0.576466
vt 0.217808 0.592596
vt 0.147798 0.592596
vt 0.505204 0.571599
vt 0.201765 0.660051
vt 0.650107 0.253206
vt 0.357828 0.592596
vt 0.357828 0.652291
vt 0.287818 0.592596
vt 0.287818 0.652291
vt 0.664536 0.664240
vt 0.199295 0.494318
vt 0.278911 0.494318
vt 0.358527 0.494318
vt 0.546437 0.569448
vt 0.147798 0.592596
vt 0.217808 0.592596
vt 0.217808 0.652291
vt 0.147798 0.652291
vt 0.637869 0.592596
vt 0.713248 0.592596
vt 0.713248 0.652291
vt 0.637869 0.652291
vt 0.438143 0.494318
vt 0.517759 0.494318
vt 0.199295 0.419179
vt 0.285017 0.419179
vt 0.364633 0.419179
vt 0.452311 0.419179
vt 0.364633 0.412218
vt 0.452311 0.412218
vt 0.285017 0.412218
vt 0.857276 0.253206
vt 0.749866 0.253206
vt 0.643238 0.560336
vt 0.713248 0.560336
vt 0.713248 0.576466
vt 0.643238 0.576466
vt 0.199295 0.412218
vt 0.358527 0.487357
vt 0.438143 0.487357
vt 0.517759 0.487357
vt 0.519464 0.883057
vt 0.664940 0.653094
vt 0.689867 0.653998
vt 0.689463 0.665143
vt 0.504842 0.564647
vt 0.546074 0.562496
vt 0.278911 0.487357
vt 0.199295 0.487357
vt 0.343112 0.658208
vt 0.151310 0.253206
vt 0.639565 0.726295
vt 0.147798 0.560336
vt 0.223177 0.560336
vt 0.223177 0.576466
vt 0.147798 0.576466
vt 0.202017 0.653094
vt 0.289637 0.656270
vt 0.293187 0.560336
vt 0.363197 0.560336
vt 0.363197 0.576466
vt 0.293187 0.576466
vt 0.230444 0.560336
vt 0.161040 0.560336
vt 0.147798 0.542851
vt 0.217201 0.542851
vt 0.433207 0.560336
vt 0.433207 0.576466
vt 0.602745 0.721656
vt 0.672755 0.721656
vt 0.672755 0.737118
vt 0.602745 0.737118
vt 0.252695 0.721656
vt 0.322705 0.721656
vt 0.322705 0.737118
vt 0.252695 0.737118
vt 0.748134 0.721656
vt 0.748134 0.737118
vt 0.182684 0.721656
vt 0.182685 0.737118
vt 0.392715 0.721656
vt 0.392715 0.737118
vt 0.462725 0.721656
vt 0.462725 0.737118
vt 0.776315 0.721656
vt 0.776315 0.737118
vt 0.147798 0.721656
vt 0.147798 0.737118
vt 0.532735 0.721656
vt 0.532735 0.737118
vt 0.147798 0.661961
vt 0.182684 0.661961
vt 0.748134 0.661961
vt 0.776315 0.661961
vt 0.602745 0.652291
vt 0.672755 0.652291
vt 0.672755 0.661961
vt 0.602745 0.661961
vt 0.252695 0.652291
vt 0.322705 0.652291
vt 0.322705 0.661961
vt 0.252695 0.661961
vt 0.748134 0.652291
vt 0.182684 0.652291
vt 0.392715 0.652291
vt 0.392715 0.661961
vt 0.462725 0.652291
vt 0.462725 0.661961
vt 0.776315 0.652291
vt 0.147798 0.652291
vt 0.532735 0.652291
vt 0.532735 0.661961
vt 0.297457 0.883057
vt 0.427839 0.576466
vt 0.427839 0.592596
vt 0.251070 0.253206
vt 0.503217 0.560336
vt 0.573228 0.560336
vt 0.573228 0.576466
vt 0.503217 0.576466
vt 0.893009 0.253206
vt 0.630467 0.883057
vt 0.574965 0.883057
vt 0.182197 0.883057
vt 0.159857 0.883057
vt 0.287818 0.576466
vt 0.287818 0.592596
vt 0.241955 0.883057
vt 0.350829 0.253206
vt 0.357828 0.576466
vt 0.357828 0.592596
vt 0.658124 0.883057
vt 0.638919 0.744117
vn 0.0000 -1.0000 0.0000
vn 0.0000 1.0000 0.0000
vn 0.7403 0.0000 -0.6722
vn 0.5578 0.0000 -0.8300
vn 1.0000 -0.0000 0.0000
vn 0.0000 0.0000 -1.0000
vn -0.0745 0.0000 -0.9972
vn -0.5954 0.0000 -0.8034
vn 0.7900 0.0000 -0.6132
vn 0.0745 0.0000 -0.9972
vn 0.5954 0.0000 -0.8034
vn -1.0000 0.0000 0.0000
vn -0.7403 0.0000 -0.6722
vn -0.8033 0.0000 -0.5956
vn 0.0000 0.0000 1.0000
vn 0.0000 0.4866 0.8736
vn -0.7403 0.0000 -0.6723
vn 0.7403 0.0000 -0.6723
usemtl piano_material
s off
f 21/1/1 22/2/1 4/3/1 2/4/1
f 19/5/1 20/6/1 6/7/1 5/8/1
f 15/9/1 16/10/1 7/11/1 8/12/1
f 18/13/1 17/14/1 10/15/1 9/16/1
f 14/17/1 13/18/1 11/19/1 12/20/1
f 1/21/1 3/22/1 13/18/1 14/17/1
f 12/20/1 11/19/1 16/10/1 15/9/1
f 8/12/1 7/11/1 17/14/1 18/13/1
f 9/16/1 10/15/1 20/6/1 19/5/1
f 5/8/1 6/7/1 22/2/1 21/1/1
f 25/23/2 26/24/2 27/25/2 31/26/2
f 29/27/2 30/28/2 32/29/2 39/30/2
f 35/31/2 36/32/2 34/33/2 41/34/2
f 37/35/2 38/36/2 40/37/2 33/38/2
f 43/39/2 44/40/2 42/41/2 28/42/2
f 24/43/2 43/39/2 28/42/2 23/44/2
f 44/40/2 35/31/2 41/34/2 42/41/2
f 36/32/2 37/35/2 33/38/2 34/33/2
f 38/36/2 29/27/2 39/30/2 40/37/2
f 30/28/2 25/23/2 31/26/2 32/29/2
f 133/45/3 121/46/3 40/47/3 39/48/3
f 134/49/4 133/45/4 39/48/4 32/50/4
f 149/51/5 139/52/5 203/53/5 188/54/5
f 60/55/1 57/56/1 189/57/1 192/58/1
f 137/59/6 134/49/6 32/50/6 31/60/6
f 138/61/7 124/62/7 41/63/7 34/64/7
f 124/62/8 125/65/8 42/66/8 41/63/8
f 132/67/1 135/68/1 201/69/1 183/70/1
f 64/71/5 162/72/5 200/73/5 193/74/5
f 140/75/9 137/76/9 31/77/9 27/78/9
f 141/79/10 138/61/10 34/64/10 33/80/10
f 121/81/11 141/79/11 33/80/11 40/82/11
f 142/83/12 127/84/12 24/85/12 23/86/12
f 122/87/1 126/88/1 178/89/1 176/90/1
f 162/72/5 130/91/5 182/92/5 200/73/5
f 38/36/2 37/35/2 171/93/2 172/94/2
f 125/95/13 131/96/13 28/97/13 42/98/13
f 130/91/5 140/75/5 27/78/5 26/99/5
f 63/100/1 66/101/1 190/102/1 191/103/1
f 130/91/5 26/99/5 166/104/5 182/92/5
f 37/35/2 36/32/2 170/105/2 171/93/2
f 131/96/14 142/83/14 23/86/14 28/97/14
f 13/106/14 3/107/14 61/108/14 65/109/14
f 14/17/1 12/20/1 76/110/1 75/111/1
f 48/112/2 49/113/2 78/114/2 81/115/2
f 5/8/1 21/1/1 67/116/1 70/117/1
f 2/118/5 4/119/5 58/120/5 64/121/5
f 11/122/13 13/106/13 65/109/13 55/123/13
f 50/124/2 51/125/2 79/126/2 82/127/2
f 57/56/2 60/55/2 84/128/2 80/129/2
f 66/101/2 63/100/2 86/130/2 88/131/2
f 3/107/12 1/132/12 60/133/12 61/108/12
f 10/134/11 17/135/11 59/136/11 45/137/11
f 17/135/10 7/138/10 54/139/10 59/136/10
f 4/119/9 22/140/9 52/141/9 58/120/9
f 12/20/1 15/9/1 71/142/1 76/110/1
f 19/5/1 5/8/1 70/117/1 69/143/1
f 16/144/8 11/122/8 55/123/8 53/145/8
f 7/146/7 16/144/7 53/145/7 54/147/7
f 22/140/6 6/148/6 47/149/6 52/141/6
f 49/113/2 66/101/2 88/131/2 78/114/2
f 62/150/2 50/124/2 82/127/2 85/151/2
f 6/148/4 20/152/4 46/153/4 47/149/4
f 20/152/3 10/134/3 45/137/3 46/153/3
f 74/154/15 69/155/15 78/156/15 88/157/15
f 73/158/15 74/154/15 88/157/15 86/159/15
f 77/160/15 75/161/15 80/162/15 84/163/15
f 67/164/15 68/165/15 87/166/15 83/167/15
f 72/168/15 73/158/15 86/159/15 85/169/15
f 71/170/15 72/168/15 85/169/15 82/171/15
f 75/161/15 76/172/15 79/173/15 80/162/15
f 70/174/15 67/164/15 83/167/15 81/175/15
f 76/172/15 71/170/15 82/171/15 79/173/15
f 69/155/15 70/174/15 81/175/15 78/156/15
f 2/118/5 64/121/5 87/176/5 68/177/5
f 51/125/2 57/56/2 80/129/2 79/126/2
f 15/9/1 8/12/1 72/178/1 71/142/1
f 8/12/1 18/13/1 73/179/1 72/178/1
f 64/180/2 56/181/2 83/182/2 87/183/2
f 21/1/1 2/4/1 68/184/1 67/116/1
f 56/181/2 48/112/2 81/115/2 83/182/2
f 63/100/2 62/150/2 85/151/2 86/130/2
f 1/21/1 14/17/1 75/111/1 77/185/1
f 18/13/1 9/16/1 74/186/1 73/179/1
f 9/16/1 19/5/1 69/143/1 74/186/1
f 60/133/12 1/132/12 77/187/12 84/188/12
f 89/189/12 90/190/12 92/191/12 91/192/12
f 91/193/6 92/194/6 96/195/6 95/196/6
f 95/197/5 96/198/5 94/199/5 93/200/5
f 93/201/15 94/202/15 90/203/15 89/204/15
f 91/205/1 95/206/1 93/207/1 89/208/1
f 96/209/2 92/210/2 90/211/2 94/212/2
f 97/213/12 98/214/12 100/215/12 99/216/12
f 99/217/6 100/218/6 104/219/6 103/220/6
f 103/221/5 104/222/5 102/223/5 101/224/5
f 101/225/15 102/226/15 98/227/15 97/228/15
f 99/229/1 103/230/1 101/231/1 97/232/1
f 104/233/2 100/234/2 98/235/2 102/236/2
f 105/237/12 106/238/12 108/239/12 107/240/12
f 107/241/6 108/242/6 112/243/6 111/244/6
f 111/245/5 112/246/5 110/247/5 109/248/5
f 109/249/15 110/250/15 106/251/15 105/252/15
f 107/253/1 111/254/1 109/255/1 105/256/1
f 112/257/2 108/258/2 106/259/2 110/260/2
f 113/261/12 114/262/12 116/263/12 115/264/12
f 115/265/6 116/266/6 120/267/6 119/268/6
f 119/269/5 120/270/5 118/271/5 117/272/5
f 117/273/15 118/274/15 114/275/15 113/276/15
f 115/277/1 119/278/1 117/279/1 113/280/1
f 120/281/2 116/282/2 114/283/2 118/284/2
f 163/285/14 152/286/14 142/83/14 131/96/14
f 164/287/16 145/288/16 135/289/16 132/290/16
f 161/291/16 164/287/16 132/290/16 129/292/16
f 139/293/1 136/294/1 202/295/1 203/296/1
f 162/72/5 150/297/5 140/75/5 130/91/5
f 157/298/17 163/285/17 131/96/17 125/95/17
f 66/101/1 49/113/1 185/299/1 190/102/1
f 160/300/16 161/291/16 129/292/16 128/301/16
f 155/302/16 160/300/16 128/301/16 123/303/16
f 152/286/12 159/304/12 127/84/12 142/83/12
f 153/305/11 151/306/11 141/79/11 121/81/11
f 151/306/10 148/307/10 138/61/10 141/79/10
f 150/297/9 147/308/9 137/76/9 140/75/9
f 149/309/16 146/310/16 136/311/16 139/312/16
f 154/313/16 158/314/16 126/315/16 122/316/16
f 156/317/8 157/318/8 125/65/8 124/62/8
f 148/307/7 156/317/7 124/62/7 138/61/7
f 147/319/6 144/320/6 134/49/6 137/59/6
f 146/310/16 155/302/16 123/303/16 136/311/16
f 145/288/16 154/313/16 122/316/16 135/289/16
f 144/320/4 143/321/4 133/45/4 134/49/4
f 143/321/18 153/322/18 121/46/18 133/45/18
f 46/323/18 45/324/18 153/322/18 143/321/18
f 47/325/4 46/323/4 143/321/4 144/320/4
f 48/112/1 56/181/1 194/326/1 197/327/1
f 146/328/2 149/329/2 188/330/2 186/331/2
f 52/332/6 47/325/6 144/320/6 147/319/6
f 54/333/7 53/334/7 156/317/7 148/307/7
f 53/334/8 55/335/8 157/318/8 156/317/8
f 36/32/2 35/31/2 169/336/2 170/105/2
f 159/304/12 60/337/12 192/338/12 199/339/12
f 58/340/9 52/341/9 147/308/9 150/297/9
f 59/342/10 54/333/10 148/307/10 151/306/10
f 45/343/11 59/342/11 151/306/11 153/305/11
f 61/344/12 60/337/12 159/304/12 152/286/12
f 57/56/1 51/125/1 187/345/1 189/57/1
f 127/84/12 159/304/12 199/339/12 179/346/12
f 158/347/2 154/348/2 204/349/2 198/350/2
f 55/351/17 65/352/17 163/285/17 157/298/17
f 64/71/5 58/340/5 150/297/5 162/72/5
f 145/353/2 164/354/2 208/355/2 184/356/2
f 126/357/12 158/358/12 198/359/12 178/360/12
f 164/354/2 161/361/2 207/362/2 208/355/2
f 65/352/14 61/344/14 152/286/14 163/285/14
f 201/363/15 176/364/15 168/365/15 167/366/15
f 202/367/15 177/368/15 169/369/15 174/370/15
f 176/364/15 178/371/15 165/372/15 168/365/15
f 203/373/15 202/367/15 174/370/15 173/374/15
f 177/368/15 180/375/15 170/376/15 169/369/15
f 180/375/15 181/377/15 171/378/15 170/376/15
f 178/371/15 182/379/15 166/380/15 165/372/15
f 179/381/15 203/373/15 173/374/15 175/382/15
f 181/377/15 183/383/15 172/384/15 171/378/15
f 183/383/15 201/363/15 167/366/15 172/384/15
f 199/385/16 188/386/16 203/373/16 179/381/16
f 198/387/16 200/388/16 182/379/16 178/371/16
f 185/389/15 197/390/15 204/391/15 184/392/15
f 187/393/15 196/394/15 205/395/15 186/396/15
f 197/390/15 194/397/15 198/387/15 204/391/15
f 189/398/15 187/393/15 186/396/15 188/386/15
f 196/394/15 195/399/15 206/400/15 205/395/15
f 195/399/15 191/401/15 207/402/15 206/400/15
f 194/397/15 193/403/15 200/388/15 198/387/15
f 192/404/15 189/398/15 188/386/15 199/385/15
f 191/401/15 190/405/15 208/406/15 207/402/15
f 190/405/15 185/389/15 184/392/15 208/406/15
f 29/27/2 38/36/2 172/94/2 167/407/2
f 129/408/1 132/67/1 183/70/1 181/409/1
f 51/125/1 50/124/1 196/410/1 187/345/1
f 160/411/2 155/412/2 205/413/2 206/414/2
f 49/113/1 48/112/1 197/327/1 185/299/1
f 56/181/1 64/180/1 193/415/1 194/326/1
f 44/40/2 43/39/2 173/416/2 174/417/2
f 161/361/2 160/411/2 206/414/2 207/362/2
f 26/24/2 25/23/2 165/418/2 166/419/2
f 136/294/1 123/420/1 177/421/1 202/295/1
f 25/23/2 30/28/2 168/422/2 165/418/2
f 62/150/1 63/100/1 191/103/1 195/423/1
f 135/68/1 122/87/1 176/90/1 201/69/1
f 154/348/2 145/353/2 184/356/2 204/349/2
f 50/124/1 62/150/1 195/423/1 196/410/1
f 155/412/2 146/328/2 186/331/2 205/413/2
f 128/424/1 129/408/1 181/409/1 180/425/1
f 43/39/2 24/43/2 175/426/2 173/416/2
f 30/28/2 29/27/2 167/407/2 168/422/2
f 123/420/1 128/424/1 180/425/1 177/421/1
f 35/31/2 44/40/2 174/417/2 169/336/2
f 24/85/12 127/84/12 179/346/12 175/427/12
