# Blender v3.0.1 OBJ File: 'wardrobe.blend'
# www.blender.org
mtllib wardrobe.mtl
o wardrobe_Cube.001
v -1.000000 0.000000 0.163636
v -1.000000 2.000000 0.163636
v -1.000000 0.000000 -0.336364
v -1.000000 2.000000 -0.336364
v 1.000000 0.000000 0.163636
v 1.000000 2.000000 0.163636
v 1.000000 0.000000 -0.336364
v 1.000000 2.000000 -0.336364
v 0.000000 2.130000 -0.336364
v 0.000000 2.130000 0.263636
v -0.500000 2.000000 0.263636
v -0.500000 2.000000 -0.336364
v 0.500000 2.000000 -0.336364
v 0.500000 2.000000 0.263636
v -0.250000 2.100000 -0.336364
v -0.250000 2.100000 0.263636
v 0.250000 2.100000 0.263636
v 0.250000 2.100000 -0.336364
v -0.750000 2.000000 0.263636
v -0.750000 0.000000 0.263636
v 0.750000 0.000000 0.263636
v 0.750000 2.000000 0.263636
vt 0.121065 0.515738
vt 0.121065 1.000000
vt 0.000000 1.000000
vt 0.000000 0.515738
vt 0.895884 0.484262
vt 0.895884 0.968523
vt 0.774818 0.968523
vt 0.774818 0.484262
vt 0.423729 0.515738
vt 0.423729 0.031477
vt 0.484262 0.031477
vt 0.484262 0.515738
vt 0.484261 0.968523
vt 0.484261 0.484262
vt 0.605327 0.484262
vt 0.629540 0.544794
vt 0.629540 0.907990
vt 0.605327 0.968523
vt 0.629540 0.786925
vt 0.629540 0.726392
vt 0.774818 0.726392
vt 0.774818 0.786925
vt 0.629540 0.665860
vt 0.629540 0.605327
vt 0.774818 0.605327
vt 0.774818 0.665860
vt 0.629540 0.847458
vt 0.774818 0.847458
vt 0.000000 0.515738
vt 0.000000 0.031477
vt 0.060533 0.031477
vt 0.060533 0.515738
vt 0.968523 0.000000
vt 0.968523 0.484262
vt 0.484262 0.484262
vt 0.484262 0.000000
vt 0.128329 0.697336
vt 0.121065 0.636804
vt 0.128329 0.576271
vt 0.152542 0.515738
vt 0.152542 0.757869
vt 0.750605 0.484262
vt 0.774818 0.544794
vt 0.629540 0.484262
vt 0.629540 0.968523
vt 0.774818 0.907990
vt 0.750605 0.968523
vt 0.121065 0.031477
vt 0.363196 0.031477
vt 0.181598 0.007264
vt 0.242131 0.000000
vt 0.302663 0.007264
vn -1.0000 0.0000 0.0000
vn 1.0000 0.0000 0.0000
vn -0.3714 0.0000 0.9285
vn 0.0000 -1.0000 0.0000
vn 0.1191 0.9929 0.0000
vn -0.3714 0.9285 0.0000
vn -0.1191 0.9929 0.0000
vn 0.3714 0.9285 0.0000
vn 0.3714 0.0000 0.9285
vn 0.0000 0.0000 -1.0000
vn 0.0000 1.0000 0.0000
vn 0.0000 0.0000 1.0000
usemtl wardrobe_material
s off
f 1/1/1 2/2/1 4/3/1 3/4/1
f 7/5/2 8/6/2 6/7/2 5/8/2
f 20/9/3 19/10/3 2/11/3 1/12/3
f 3/13/4 7/14/4 5/15/4 21/16/4 20/17/4 1/18/4
f 18/19/5 9/20/5 10/21/5 17/22/5
f 15/23/6 12/24/6 11/25/6 16/26/6
f 9/20/7 15/23/7 16/26/7 10/21/7
f 13/27/8 18/19/8 17/22/8 14/28/8
f 5/29/9 6/30/9 22/31/9 21/32/9
f 3/33/10 4/34/10 8/35/10 7/36/10
f 15/37/10 9/38/10 18/39/10 13/40/10 12/41/10
f 2/42/11 19/43/11 11/25/11 12/24/11 4/44/11
f 8/45/11 13/27/11 14/28/11 22/46/11 6/47/11
f 20/9/12 21/32/12 22/31/12 14/48/12 11/49/12 19/10/12
f 17/50/12 10/51/12 16/52/12 11/49/12 14/48/12
